<?xml version="1.0" encoding="utf-8"?>
<!-- Generator: Adobe Illustrator 22.0.0, SVG Export Plug-In . SVG Version: 6.00 Build 0)  -->
<svg version="1.1" id="Livello_1" xmlns="http://www.w3.org/2000/svg" xmlns:xlink="http://www.w3.org/1999/xlink" x="0px" y="0px"
	 viewBox="0 0 256 185" style="enable-background:new 0 0 256 185;" xml:space="preserve">
<style type="text/css">
	.st0{fill:#2396ED;}
</style>
<path class="st0" d="M201.9,79.2c-3.5-2.4-11.4-3.3-17.6-2.1c-0.7-6-4-11.3-9.8-15.9l-3.3-2.4l-2.3,3.5c-2.9,4.5-4.3,10.8-3.9,16.9
	c0.1,2.1,0.9,5.9,3,9.2c-2,1.2-6.2,2.7-11.7,2.7H51.7l-0.3,1.2c-1,6-1,24.8,10.8,39.3c9,11,22.3,16.5,39.8,16.5
	c37.9,0,65.9-18.2,79.1-51.2c5.2,0.2,16.3,0,22-11.3c0.1-0.3,0.4-0.9,1.4-3.2l0.6-1.2C205,81.2,201.9,79.2,201.9,79.2z M135.2,36.8
	h-15.9v15h15.9V36.8z M135.2,54.9h-15.9v15h15.9V54.9L135.2,54.9z M116.4,54.9h-15.9v15h15.9V54.9L116.4,54.9z M97.6,54.9H81.7v15
	h15.9L97.6,54.9L97.6,54.9z M78.8,72.9H62.9v15h15.9L78.8,72.9L78.8,72.9z M97.6,72.9H81.7v15h15.9V72.9L97.6,72.9z M116.4,72.9
	h-15.9v15h15.9V72.9L116.4,72.9z M135.2,72.9h-15.9v15h15.9V72.9L135.2,72.9z M154,72.9h-15.9v15H154L154,72.9L154,72.9z"/>
</svg>
