<?xml version="1.0" encoding="utf-8"?>
<!-- Generator: Adobe Illustrator 22.0.0, SVG Export Plug-In . SVG Version: 6.00 Build 0)  -->
<svg version="1.1" id="Livello_1" xmlns="http://www.w3.org/2000/svg" xmlns:xlink="http://www.w3.org/1999/xlink" x="0px" y="0px"
	 viewBox="0 0 256 256" style="enable-background:new 0 0 256 256;" xml:space="preserve">
<style type="text/css">
	.st0{fill:#F7DF1E;}
</style>
<path class="st0" d="M61.3,59.5h137v137h-137V59.5z"/>
<path d="M97.3,174l10.5-6.3c2,3.6,3.9,6.6,8.3,6.6c4.2,0,6.9-1.7,6.9-8.1v-43.8h12.9v44c0,13.3-7.8,19.4-19.2,19.4
	C106.3,185.8,100.3,180.4,97.3,174"/>
<path d="M142.8,172.6l10.5-6.1c2.8,4.5,6.3,7.8,12.7,7.8c5.3,0,8.7-2.7,8.7-6.3c0-4.4-3.5-6-9.4-8.6l-3.2-1.4
	c-9.3-4-15.4-8.9-15.4-19.4c0-9.7,7.4-17,18.9-17c8.2,0,14.1,2.9,18.3,10.3l-10,6.4c-2.2-4-4.6-5.5-8.3-5.5c-3.8,0-6.2,2.4-6.2,5.5
	c0,3.9,2.4,5.4,7.9,7.8l3.2,1.4c10.9,4.7,17.1,9.5,17.1,20.2c0,11.6-9.1,17.9-21.3,17.9C154.3,185.8,146.6,180.1,142.8,172.6"/>
</svg>
