<?xml version="1.0" encoding="utf-8"?>
<!-- Generator: Adobe Illustrator 22.0.0, SVG Export Plug-In . SVG Version: 6.00 Build 0)  -->
<svg version="1.1" id="Livello_1" xmlns="http://www.w3.org/2000/svg" xmlns:xlink="http://www.w3.org/1999/xlink" x="0px" y="0px"
	 viewBox="0 0 256 255" style="enable-background:new 0 0 256 255;" xml:space="preserve">
<style type="text/css">
	.st0{fill:url(#SVGID_1_);}
	.st1{fill:url(#SVGID_2_);}
</style>
<linearGradient id="SVGID_1_" gradientUnits="userSpaceOnUse" x1="-587.3694" y1="637.5806" x2="-587.03" y2="637.2438" gradientTransform="matrix(189.3828 0 0 -189.8052 111334.3906 121091.3828)">
	<stop  offset="0" style="stop-color:#387EB8"/>
	<stop  offset="1" style="stop-color:#366994"/>
</linearGradient>
<path class="st0" d="M149.1,63.4c-33,0-30.9,14.3-30.9,14.3l0,14.8h31.5v4.5h-44c0,0-21.1-2.4-21.1,30.9c0,33.3,18.4,32.1,18.4,32.1
	h11v-15.5c0,0-0.6-18.4,18.1-18.4h31.2c0,0,17.5,0.3,17.5-17V80.6C180.9,80.6,183.5,63.4,149.1,63.4z M131.7,73.3
	c3.1,0,5.7,2.5,5.7,5.7c0,0,0,0,0,0c0,3.1-2.5,5.7-5.7,5.7c0,0,0,0,0,0c-3.1,0-5.7-2.5-5.7-5.7c0,0,0,0,0,0
	C126,75.9,128.5,73.3,131.7,73.3C131.7,73.3,131.7,73.3,131.7,73.3z"/>
<linearGradient id="SVGID_2_" gradientUnits="userSpaceOnUse" x1="-587.5092" y1="637.7032" x2="-587.1447" y2="637.3578" gradientTransform="matrix(189.3828 0 0 -189.8052 111400.3672 121155.6406)">
	<stop  offset="0" style="stop-color:#FFE052"/>
	<stop  offset="1" style="stop-color:#FFC331"/>
</linearGradient>
<path class="st1" d="M150,192.7c33,0,30.9-14.3,30.9-14.3l0-14.8h-31.5v-4.5h44c0,0,21.1,2.4,21.1-30.9c0-33.3-18.4-32.1-18.4-32.1
	h-11v15.5c0,0,0.6,18.4-18.1,18.4h-31.2c0,0-17.5-0.3-17.5,17v28.5C118.2,175.4,115.5,192.7,150,192.7L150,192.7z M167.4,182.7
	c-3.1,0-5.7-2.5-5.7-5.7c0,0,0,0,0,0c0-3.1,2.5-5.7,5.7-5.7c0,0,0,0,0,0c3.1,0,5.7,2.5,5.7,5.7c0,0,0,0,0,0
	C173,180.2,170.5,182.7,167.4,182.7C167.4,182.7,167.4,182.7,167.4,182.7L167.4,182.7z"/>
</svg>
