<?xml version="1.0" encoding="utf-8"?>
<!-- Generator: Adobe Illustrator 22.0.0, SVG Export Plug-In . SVG Version: 6.00 Build 0)  -->
<svg version="1.1" id="Livello_1" xmlns="http://www.w3.org/2000/svg" xmlns:xlink="http://www.w3.org/1999/xlink" x="0px" y="0px"
	 viewBox="0 0 256 228" style="enable-background:new 0 0 256 228;" xml:space="preserve">
<style type="text/css">
	.st0{fill:#00D8FF;}
</style>
<path class="st0" d="M192.7,99.9c-1.5-0.5-2.9-1-4.4-1.4c0.2-1,0.5-2,0.7-3c3.4-16.3,1.2-29.4-6.3-33.7c-7.2-4.1-18.9,0.2-30.8,10.5
	c-1.2,1-2.3,2.1-3.4,3.1c-0.7-0.7-1.5-1.4-2.3-2.1c-12.4-11-24.9-15.7-32.3-11.3c-7.2,4.1-9.3,16.5-6.3,31.9c0.3,1.5,0.6,3,1,4.6
	c-1.8,0.5-3.5,1-5.1,1.6c-14.6,5.1-23.9,13-23.9,21.3c0,8.5,10,17.1,25.1,22.3c1.2,0.4,2.5,0.8,3.7,1.2c-0.4,1.6-0.8,3.3-1.1,4.9
	c-2.9,15.1-0.6,27.2,6.5,31.3c7.4,4.3,19.8-0.1,31.8-10.7c1-0.9,1.9-1.7,2.9-2.6c1.2,1.2,2.4,2.3,3.7,3.4
	c11.7,10.1,23.2,14.1,30.4,10c7.4-4.3,9.8-17.2,6.7-32.9c-0.2-1.2-0.5-2.5-0.8-3.7c0.9-0.3,1.7-0.5,2.6-0.8
	c15.8-5.2,26-13.7,26-22.3C217.2,113,207.6,105,192.7,99.9L192.7,99.9z M189.3,138c-0.8,0.2-1.5,0.5-2.3,0.7
	c-1.7-5.5-4.1-11.4-7-17.4c2.7-5.9,5-11.7,6.7-17.2c1.4,0.4,2.8,0.8,4.1,1.3c12.7,4.4,20.5,10.9,20.5,15.8
	C211.3,126.6,202.9,133.5,189.3,138z M183.6,149.2c1.4,7,1.6,13.2,0.7,18.1c-0.8,4.4-2.5,7.4-4.5,8.5c-4.3,2.5-13.6-0.8-23.6-9.4
	c-1.2-1-2.3-2.1-3.5-3.2c3.9-4.2,7.7-9.2,11.5-14.6c6.6-0.6,12.9-1.6,18.6-2.9C183.2,147,183.4,148.1,183.6,149.2z M126.5,175.4
	c-4.2,1.5-7.6,1.5-9.6,0.4c-4.3-2.5-6.1-12.2-3.7-25.1c0.3-1.5,0.6-3.1,1-4.6c5.6,1.2,11.9,2.1,18.5,2.7c3.8,5.4,7.8,10.3,11.8,14.6
	c-0.9,0.8-1.7,1.6-2.6,2.4C136.6,170.5,131.2,173.8,126.5,175.4L126.5,175.4z M106.7,138c-6.7-2.3-12.2-5.3-16-8.5
	c-3.4-2.9-5.1-5.8-5.1-8.2c0-5,7.5-11.4,19.9-15.7c1.5-0.5,3.1-1,4.7-1.5c1.7,5.6,4,11.4,6.7,17.4c-2.8,6-5,12-6.8,17.6
	C108.9,138.7,107.8,138.3,106.7,138L106.7,138z M113.3,92.7c-2.6-13.2-0.9-23.2,3.5-25.7c4.6-2.7,14.8,1.1,25.5,10.7
	c0.7,0.6,1.4,1.3,2.1,1.9c-4,4.3-7.9,9.2-11.7,14.5c-6.5,0.6-12.7,1.6-18.4,2.9C113.9,95.5,113.6,94.1,113.3,92.7L113.3,92.7z
	 M172.7,107.3c-1.3-2.3-2.7-4.6-4.2-6.9c4.4,0.6,8.6,1.3,12.5,2.2c-1.2,3.8-2.7,7.8-4.4,11.8C175.3,112.1,174,109.7,172.7,107.3z
	 M148.5,83.8c2.7,2.9,5.4,6.2,8.1,9.8c-5.4-0.3-10.8-0.3-16.3,0C143,90,145.7,86.7,148.5,83.8z M124.1,107.4
	c-1.3,2.3-2.6,4.7-3.9,7.1c-1.7-4.1-3.2-8-4.4-11.9c3.9-0.9,8.1-1.6,12.5-2.1C126.9,102.7,125.5,105,124.1,107.4L124.1,107.4z
	 M128.5,142.5c-4.5-0.5-8.8-1.2-12.7-2c1.2-3.9,2.7-8,4.5-12.1c1.2,2.4,2.5,4.8,3.9,7.1C125.5,137.8,127,140.2,128.5,142.5z
	 M148.6,159.1c-2.8-3-5.6-6.3-8.3-9.9c2.6,0.1,5.3,0.2,8,0.2c2.8,0,5.6-0.1,8.3-0.2C154,152.9,151.3,156.2,148.6,159.1z
	 M176.7,128.1c1.8,4.2,3.4,8.2,4.6,12.1c-4,0.9-8.3,1.6-12.8,2.2c1.5-2.3,2.9-4.6,4.2-7C174.1,133,175.4,130.6,176.7,128.1
	L176.7,128.1z M167.6,132.4c-2.1,3.6-4.3,7.2-6.6,10.6c-4.2,0.3-8.4,0.4-12.6,0.4c-4.3,0-8.4-0.1-12.5-0.4c-2.4-3.5-4.6-7-6.7-10.7
	h0c-2.1-3.6-4.1-7.3-5.9-11.1c1.8-3.8,3.8-7.5,5.8-11.1l0,0c2.1-3.6,4.3-7.2,6.7-10.6c4.1-0.3,8.3-0.5,12.5-0.5h0
	c4.3,0,8.5,0.2,12.5,0.5c2.3,3.4,4.5,7,6.6,10.6c2.1,3.6,4.1,7.3,5.9,11C171.7,125.1,169.7,128.8,167.6,132.4z M179.7,66.8
	c4.6,2.7,6.4,13.4,3.5,27.4c-0.2,0.9-0.4,1.8-0.6,2.7c-5.7-1.3-11.9-2.3-18.4-2.9c-3.8-5.4-7.7-10.3-11.6-14.5c1-1,2.1-2,3.2-2.9
	C165.9,67.8,175.4,64.3,179.7,66.8L179.7,66.8z M148.4,109c6.8,0,12.3,5.5,12.3,12.3c0,6.8-5.5,12.3-12.3,12.3
	c-6.8,0-12.3-5.5-12.3-12.3C136.1,114.5,141.6,109,148.4,109z"/>
</svg>
