<svg xmlns="http://www.w3.org/2000/svg" viewBox="0 0 49.26 45.87"><title>Risorsa 1</title><g id="Livello_2" data-name="Livello 2"><g id="Layer_1" data-name="Layer 1"><path d="M24.76,15.87c-.07.23-.11.42-.19.62,0,0,.08,0,.16,0a1,1,0,0,0-.16.65.83.83,0,0,1,0,.31c-.07.27,0,.58-.07.85,0,.07,0,.15,0,.23-.15.07-.15.23-.15.38a2.19,2.19,0,0,1-.12.7c-.07.19-.11.38-.15.53a18.34,18.34,0,0,1-.42,2L23,24.31c0,.11-.08.19-.11.3a.25.25,0,0,0,.19-.15c0-.15.11-.31.15-.46s.08-.23.19-.27a6.78,6.78,0,0,0-.34,1c-.19.58-.46,1.16-.66,1.73a2.41,2.41,0,0,1-.42.85s0,.08-.08.12v0s0,0,0,.07a.15.15,0,0,1,0-.11c-.12.07-.2.15-.12.31-.15.07-.08.19,0,.34a.27.27,0,0,0-.19,0,.23.23,0,0,0,0,.15c0,.12,0,.23-.08.35a1,1,0,0,1-.11.35,1.63,1.63,0,0,1-.31.42,1.51,1.51,0,0,0-.19.35.84.84,0,0,0-.16.27,1.62,1.62,0,0,0-.19.42.19.19,0,0,1-.15.19c-.08,0-.08.08-.08.16a.59.59,0,0,1-.23.38.37.37,0,0,0-.16.23,2.22,2.22,0,0,1-.38.58c-.19.27-.42.58-.62.89a6.36,6.36,0,0,1-.77.92.08.08,0,0,0-.07.08,8.37,8.37,0,0,1-1.35,1.23,8.69,8.69,0,0,1-2.81,1.39,12.79,12.79,0,0,1-1.7.34,8.73,8.73,0,0,1-1.77,0,14.5,14.5,0,0,1-1.85-.19c-.11,0-.19,0-.31,0H8s-.11.12-.15.12a.73.73,0,0,1-.31,0,1.21,1.21,0,0,0-.35-.19s0,.07-.07.15L7,36.48a.72.72,0,0,0-.5-.43c-.54-.23-1-.46-1.54-.73A7.87,7.87,0,0,1,3.2,34.09l-.35-.35c-.23-.23-.42-.42-.62-.65a8.44,8.44,0,0,1-1-1.54c-.08-.16-.11-.35-.19-.54l-.23-.85-.12-.23a1.47,1.47,0,0,1-.19-.77c0-.42,0-.81,0-1.2,0-.11,0-.19,0-.26.19-.12.27,0,.35.11a.78.78,0,0,1,.57-.15c.08.19,0,.38.16.57.07-.15-.08-.3,0-.46a.18.18,0,0,1,0,.12c0,.19,0,.42.08.65s.12.35.16.54,0,.16,0,.23,0,.12.12.19a.31.31,0,0,1,.08.2c.07.15.07.34.15.5a8,8,0,0,0,.39,1c.07.12.11.27.19.38a.82.82,0,0,0,.23.35c-.15,0-.15-.15-.31-.11a.23.23,0,0,0,0,.15,9.25,9.25,0,0,0,.58.73c0-.19-.19-.27-.16-.5.2.27.35.46.54.69a3.57,3.57,0,0,0,.35.47l.38.34c.08.08.16.12.24.2a.83.83,0,0,0,.26.23l1.16.73c.27.15.39.08.39-.23a4.46,4.46,0,0,0-.12-.7,1.12,1.12,0,0,1-.08-.3L6.32,33a5.56,5.56,0,0,0-.08-.81,2.25,2.25,0,0,0-.12-.54c0-.07,0-.11,0-.15,0-.35,0-.66,0-1a3.7,3.7,0,0,0-.19-1.27.88.88,0,0,1,0-.62,1,1,0,0,0,0-.35,2.43,2.43,0,0,0-.15-.73.62.62,0,0,1,0-.46.45.45,0,0,0,0-.42,1.2,1.2,0,0,1-.12-.74,2.09,2.09,0,0,1,0-.5A.54.54,0,0,1,5.58,25c0-.23,0-.43.08-.62a2.18,2.18,0,0,0-.08-.88,4.53,4.53,0,0,1-.07-1,5.33,5.33,0,0,0-.08-.84.43.43,0,0,1,0-.2h0a2.09,2.09,0,0,0,0-.5,1.78,1.78,0,0,1,0-.65,3.39,3.39,0,0,0,0-.62,3.8,3.8,0,0,1,0-1,1,1,0,0,0,0-.35c0-.46,0-.92-.07-1.39a.66.66,0,0,1,0-.26,1.61,1.61,0,0,0,0-.62,5.17,5.17,0,0,1,0-1,7.69,7.69,0,0,0,0-1.27s0-.12,0-.19v0a.71.71,0,0,0,0-.54.49.49,0,0,1,0-.23v-1a1,1,0,0,1,0-.35.94.94,0,0,0,0-.62c0-.11,0-.23,0-.34a4.36,4.36,0,0,1,.27-.77c.15,0,.27-.12.42-.08s0,.15,0,.23a.28.28,0,0,0,.08.19l-.11.81.07-.08L6,10.25c0-.08,0-.12,0-.19l.07-.12c.12,0,.16-.08.2-.08a2.63,2.63,0,0,0,.38.16v.31a1.42,1.42,0,0,0,.27-.12c.12.12,0,.27,0,.42.12-.07.08-.19.16-.27,0,.2,0,.39-.16.5s0,.24-.07.39l.19-.12c0,.16-.08.23-.12.35a.18.18,0,0,0,0,.23c.08,0,0,.12,0,.19a.28.28,0,0,0,0,.31.24.24,0,0,1,0,.16.86.86,0,0,1-.08.42,1.42,1.42,0,0,0,0,.58v.23a.48.48,0,0,1,.12.38.42.42,0,0,0,0,.31.36.36,0,0,1,0,.19c0,.43,0,.85,0,1.28a1.08,1.08,0,0,1-.07.46.72.72,0,0,0-.08.42H7.2v.16a.7.7,0,0,0-.11.46.11.11,0,0,1,0,.15,6.46,6.46,0,0,0,.07,1.16.27.27,0,0,0,0,.15c.08,0,.08-.08.08-.11l0,0a.82.82,0,0,1-.12.54.94.94,0,0,0,0,.35,1.43,1.43,0,0,0,0,.39c0,.46,0,1,0,1.42,0,.08,0,.15,0,.27.08-.15,0-.27.08-.35s.07.08.07.08a1.08,1.08,0,0,1,0,.39,1.49,1.49,0,0,0-.07.69c0,.08.07.15.11.23a.66.66,0,0,0,0,.58A.88.88,0,0,1,7.47,23v.38a.5.5,0,0,1-.08.31,3.51,3.51,0,0,0,0,1.08.73.73,0,0,0,0,.31v.69c0,.15.08.31.08.46s0,.35,0,.5h.12a2.45,2.45,0,0,1,0,.47L7.55,27c0,.46-.08.85,0,1.27a.34.34,0,0,1,0,.19l.11,1.93c0,.27.08.58.12.89v.26c0,.78.11,1.51.19,2.28.08.5.12,1,.16,1.54a.36.36,0,0,0,0,.19A2,2,0,0,0,9,35.9a7,7,0,0,0,3.35-.16,7.71,7.71,0,0,0,2-.84,11.19,11.19,0,0,0,1.42-1.23,4,4,0,0,0,.73-.81s.08-.08.08-.12a4.28,4.28,0,0,0,.73-1s0-.08,0-.08.23-.35.35-.5a7.34,7.34,0,0,1,.46-.73,2,2,0,0,1,.42-.58,1,1,0,0,0,.12-.19.39.39,0,0,1,.15-.27s0-.08,0-.12a13,13,0,0,1,.54-1.19,8.38,8.38,0,0,1,.54-.93s0,0,0,0a1.07,1.07,0,0,0,.23-.7,1.26,1.26,0,0,1,.23-.69.09.09,0,0,1,.08-.08.33.33,0,0,0,.12-.23,3.05,3.05,0,0,1,.15-.65.24.24,0,0,1,0-.16,3.26,3.26,0,0,0,.38-1,5.58,5.58,0,0,1,.31-1.08,5.89,5.89,0,0,0,.27-.77.31.31,0,0,0,0-.19,2.74,2.74,0,0,1,.15-.46,1.94,1.94,0,0,0,.16-.69,3.23,3.23,0,0,1,.11-.54,1.93,1.93,0,0,1,.08-.47,5.34,5.34,0,0,1,.27-1.27.31.31,0,0,0,0-.19,2.88,2.88,0,0,1,0-.58l.11-1a4.47,4.47,0,0,0,0-.73v-.92c0-.43,0-.85,0-1.24l-.11-1.38a2.91,2.91,0,0,0-.16-.81c-.11-.43-.19-.89-.31-1.31a13.24,13.24,0,0,0-1-2.62,12.71,12.71,0,0,0-1-1.62A8.38,8.38,0,0,0,19,4.51a7.83,7.83,0,0,0-1.81-1.35,8.3,8.3,0,0,0-2-.92c-.2,0-.35-.12-.54-.16a8.72,8.72,0,0,0-2.43-.23,5.58,5.58,0,0,0-.85.08c-.34.08-.73.15-1.11.27s-.73.23-1.12.38a4.86,4.86,0,0,0-1,.5,2.38,2.38,0,0,0-.5.27c-.12.08-.2.2-.35.24a.37.37,0,0,0-.19.07,1,1,0,0,1-.23.16c-.08.07-.16.11-.2.19s-.11.11-.19.15a.79.79,0,0,0-.31.27l-.81.7a4,4,0,0,1-.42.38,3.17,3.17,0,0,1-.38.31h0c-.19.31-.54.46-.73.77h0s0,0,0,0,.08-.08.12-.08-.08.08-.08.12,0,0-.08,0a6.82,6.82,0,0,0-.53.62,8.64,8.64,0,0,0-.54.73c-.08.11-.12.27-.2.38l-.07.08h0s-.07.08-.07.12,0,.07-.08.15v0a.17.17,0,0,1-.08.15h.08s0,0-.08,0a1.29,1.29,0,0,0-.15.2c-.23.42-.46.88-.66,1.31a6.89,6.89,0,0,0-.61,1.61l-.08.31a.24.24,0,0,0,0,.23c0,.08.08.16,0,.19a.64.64,0,0,1-.15.27.24.24,0,0,1-.31,0c-.08-.08-.08-.16-.12-.24S0,12.6,0,12.48s0-.19,0-.27a.85.85,0,0,1,0-.31,4.66,4.66,0,0,1,.19-1,7.91,7.91,0,0,1,.19-.81,4.67,4.67,0,0,1,.5-1.15,1.36,1.36,0,0,0,.24-.46.48.48,0,0,1,.07-.23c.16-.31.35-.66.54-1A2.76,2.76,0,0,0,2,6.86a.92.92,0,0,1,.39-.46A1.05,1.05,0,0,0,2.66,6a.09.09,0,0,1,.07-.08c.16-.26.35-.5.51-.8L3.39,5a2.3,2.3,0,0,0,.46-.42l.81-.93A2.74,2.74,0,0,1,5,3.35a4.51,4.51,0,0,0,1-.77s0,0,.08-.07a.13.13,0,0,1,0,.07s0,0,0-.07a.71.71,0,0,0,.47-.23,2.11,2.11,0,0,1,.69-.47c.19-.07.38-.19.58-.27a2,2,0,0,1,.65-.34c.19,0,.31-.16.5-.2L9.82.77c.42-.07.81-.15,1.23-.19s.58,0,.89,0a9.64,9.64,0,0,1,1.5.2,10.23,10.23,0,0,1,2.85.92,11.08,11.08,0,0,1,1.58.92,10,10,0,0,1,1.62,1.2,7.55,7.55,0,0,1,1.15,1.11l.39.39a11,11,0,0,1,1,1.23,2.66,2.66,0,0,0,.39.54c.19.27.23.62.46.85,0,.15.08.23.11.35s0,.07,0,.11l.27.39c0,.07,0,.19,0,.3s.16,0,.16.12,0,.12,0,.12a.35.35,0,0,1,.12.42v.11h.12s0,0,0,0a.53.53,0,0,0,0,.27,1.12,1.12,0,0,1,.08.39c0,.15.08.31.08.46s.07.19.19.27h0v.08l0,0a.35.35,0,0,1,.23.24,1,1,0,0,0,.12.46s0,.11,0,.19a1.85,1.85,0,0,0,.08.46,1.26,1.26,0,0,1,.07.5,3.1,3.1,0,0,1,0,.85v.12c0,.38,0,.77.08,1.15h0a.25.25,0,0,0,.11,0c0,.16,0,.27-.11.35S24.65,15.79,24.76,15.87ZM1,10c-.07,0-.11,0-.19,0v0Zm.12.65a2.91,2.91,0,0,0-.19.43s0,.07,0,.07C1,10.94,1.12,10.83,1.08,10.63Zm.42-1a.08.08,0,0,0,0,.12c-.11,0-.11.11-.15.19a2.18,2.18,0,0,0-.15.54,2,2,0,0,0,.3-.73S1.54,9.71,1.5,9.67ZM6.66,3.55A11.92,11.92,0,0,0,5.08,4.78l-.61.58c-.27.31-.58.61-.81.92A15.2,15.2,0,0,0,1.93,8.75a4.51,4.51,0,0,0-.35.77l-.08.11c.08,0,.08-.08.08-.11a1.19,1.19,0,0,0,.23-.31,6.39,6.39,0,0,1,.5-.89,10.94,10.94,0,0,1,.77-1.11A10.54,10.54,0,0,1,4.31,5.74c.31-.31.66-.65,1-1a12.63,12.63,0,0,1,1.12-1A.43.43,0,0,0,6.66,3.55ZM1.5,8.36s0-.08.08-.11h0S1.5,8.32,1.5,8.36Zm.16-.42s0,0,0,0v0c.08,0,.12,0,.16-.12s.08,0,.08-.08,0-.11.07-.15a.14.14,0,0,1,.08,0l.12-.23c0-.08,0-.11,0-.19L2.46,7l0,0s0,0,0,0v.16c.08-.08.12-.12.12-.19a.87.87,0,0,0,.35-.47.44.44,0,0,0,.19-.27v0a.39.39,0,0,0,.27-.31H3.31a.34.34,0,0,1,.16-.19v.11a.59.59,0,0,0,.3-.38s.08,0,.08-.08,0,0,.08-.08,0,0,.07,0,0,0,0-.07a.15.15,0,0,1-.07,0,.14.14,0,0,1,0,.08l-.08.08s0,0-.08.08a.2.2,0,0,0-.11.07c0-.07,0-.15.11-.19.39-.39.77-.81,1.16-1.16,0,0,.08-.07.11-.07v0L5,4.16a.14.14,0,0,1,0,.08l-.08.08s0,0-.07.07a.14.14,0,0,1-.08,0,.14.14,0,0,1,0,.08.14.14,0,0,1,.08,0,.14.14,0,0,1,0-.08s.07,0,.07-.07,0,0,.08-.08A.14.14,0,0,1,5,4.2a.14.14,0,0,1,0-.11l0,0c0-.16.16-.2.23-.31s.12-.08.12-.15a.45.45,0,0,0,.35-.27.27.27,0,0,0,.15,0c-.11,0-.11,0-.15,0a1.65,1.65,0,0,0-.35.27l-.35.23c-.38.38-.77.73-1.15,1.11A13.06,13.06,0,0,0,2.81,6.24c-.08.12-.23.23-.23.43-.19.07-.27.27-.35.46S2,7.4,2,7.59a.22.22,0,0,0-.15.23A1,1,0,0,1,1.66,7.94Zm.15,21.14s0-.08-.12-.15A.14.14,0,0,0,1.81,29.08Zm.31.77,0,0a0,0,0,0,0,0,0,0,0,0,0,1,0,0A0,0,0,0,1,2.12,29.85ZM2.58,6.78v.16L2.46,7ZM2.5,8.4h0s-.08.08-.08.12V8.4Zm0,0s0,0,0-.08h.12S2.54,8.36,2.54,8.4Zm0-1.62V6.67a.2.2,0,0,1,.15-.08A.32.32,0,0,1,2.58,6.78Zm.35-.34a.37.37,0,0,1-.16.07.8.8,0,0,0,.16-.19Zm.19-.39V6.2H3C3.08,6.13,3.08,6.09,3.12,6.05ZM4.24,4.93l0,0s-.08,0-.08.08,0,0,.08-.08a.14.14,0,0,1,.08,0s0,0,0-.07Zm.27-.27,0,0s-.08,0-.08.08,0,0,.08,0a.14.14,0,0,1,0-.08s.07,0,.07-.07S4.54,4.63,4.51,4.66ZM5.28,4s0,0,0-.08v0S5.28,3.93,5.28,4Zm.57,8,0,0h0ZM6,16.8h0l0,0Zm0,.26,0,0H6ZM6.08,3a0,0,0,0,0,0,0V3Zm.24,21.87a0,0,0,0,0,0,0v0s0,0,0,0Zm.07,1.58v-.15h0v.15Zm.08,2.31c0,.2,0,.35.08.58a6.41,6.41,0,0,0-.08-1.54.36.36,0,0,0-.08.27A4.06,4.06,0,0,1,6.47,28.77Zm.62,5L7,32.93a1,1,0,0,0-.15-.65.24.24,0,0,0,0-.16,2.4,2.4,0,0,1-.08-.77s0-.11-.08-.11-.07.23-.07.34l.11,1.05a1.18,1.18,0,0,0,.16.38.39.39,0,0,0,0,.46.9.9,0,0,1,0,.43v.15s0,0,0,0A.57.57,0,0,1,7,33.86a1.05,1.05,0,0,1,.08.34A.9.9,0,0,0,7.09,33.74Zm-.5-3.81s0,0,.07,0a.38.38,0,0,0,0-.19h0Zm.15-17.87h.08V12s-.08,0-.08,0Zm.08,3.58v.08s0,0,0,0A0,0,0,0,0,6.82,15.64ZM7,18.72a3.21,3.21,0,0,0,0-.62l0,0A.77.77,0,0,0,7,18.72ZM7,21.3h0V21H7Zm.08-5.47,0,0V16l.08-.08S7.09,15.87,7.09,15.83Zm0,3.2v.08a0,0,0,0,0,0,0v0Zm.19,16h0v.12h0Zm0-7.39a.21.21,0,0,1,0,.15h0l0,0S7.36,27.62,7.24,27.62Zm.08,2c0-.12.07-.27,0-.39A.35.35,0,0,0,7.32,29.66Zm0-9.9h0v-.27h0ZM7.43,31c.08-.19.12-.19.08-.27l-.12-.62s0,0,0,0A2,2,0,0,0,7.43,31Zm-.07-9.71V21C7.43,21.11,7.36,21.19,7.36,21.26Zm0,7.36v0h0Zm.07-6.09v.12a.14.14,0,0,0,0-.08A0,0,0,0,1,7.43,22.53ZM8,35.32a6.68,6.68,0,0,0-.07-.77,1.85,1.85,0,0,0-.08-.46L7.7,32.63a6.28,6.28,0,0,0-.07-.78c0-.07,0-.19,0-.23l-.12-.11a2.88,2.88,0,0,0,0,.58c0,.69.12,1.38.19,2,0,.42.08.84.16,1.27,0,0,0,.11.11.07Zm-.42-9.47a.6.6,0,0,1,0-.27v-.5A1.81,1.81,0,0,1,7.55,25.85Zm.23,3.39v.07h0S7.78,29.27,7.78,29.24ZM7.9,30.7a.33.33,0,0,0,0,.15h0Zm.19,2.73c.08.08.08.12.08.27C8.13,33.59,8.13,33.51,8.09,33.43Zm.19,1.81c0-.15,0-.27,0-.38C8.32,35,8.32,35,8.28,35.24Zm10.09-4.12a.49.49,0,0,1-.08.23l-.11.23C18.41,31.43,18.45,31.35,18.37,31.12Zm.08-.07s0,0,0,0h0Zm.38-.54s0,0,0,0a.07.07,0,0,1-.07.07l0,0S18.79,30.54,18.83,30.51Zm1.5-2.85a28.17,28.17,0,0,0,1.85-5l.08-.19c0-.16.08-.31.08-.47s0-.11,0-.15,0,.08,0,.15a.24.24,0,0,0,0,.16.41.41,0,0,0,0,.31.3.3,0,0,0-.19.19,1.81,1.81,0,0,1-.16.42,31.59,31.59,0,0,1-1.38,3.82A10.92,10.92,0,0,1,20,28.16c-.23.54-.5,1.08-.77,1.61a.24.24,0,0,0,.19-.15,2.76,2.76,0,0,0,.31-.62,2.1,2.1,0,0,0,.27-.54C20.07,28.2,20.22,27.93,20.33,27.66ZM20,28.81h0s-.08,0-.12.08S19.91,28.85,20,28.81Zm3.93-9.2c-.08.07,0,.11,0,.15a.49.49,0,0,0-.2.42.44.44,0,0,1-.07.31.63.63,0,0,1-.08.39.28.28,0,0,0,0,.38c-.08,0-.16,0-.16.12a3.63,3.63,0,0,0-.15.54A16.58,16.58,0,0,1,22.68,24c-.23.69-.46,1.35-.73,2-.11.35-.27.69-.42,1-.27.62-.54,1.23-.85,1.81a1,1,0,0,1-.15.31,5.33,5.33,0,0,1-.31.57s0,.12,0,.12a.65.65,0,0,0,.11-.15c.31-.58.66-1.2,1-1.81s.42-.93.61-1.39a31.24,31.24,0,0,0,1.16-3.24,1.09,1.09,0,0,1,.07-.3l.35-1.31v-.16c0-.11,0-.19.08-.27a.24.24,0,0,1,.08-.27.9.9,0,0,0,.15-.54c0-.23,0-.46.08-.69Zm-3.35,7.82s.11-.08.15-.16.19-.35.27-.54c.23-.54.46-1.12.65-1.69.31-.89.58-1.77.85-2.62,0-.08,0-.12,0-.16a.16.16,0,0,0,0,.08L22,23.84a32.38,32.38,0,0,1-1.23,3.28,3,3,0,0,0-.15.31v.15h0A.37.37,0,0,1,20.57,27.43ZM22,27.12H22a0,0,0,0,0,.08,0ZM22.49,26a.47.47,0,0,0-.15.19c0,.12-.12.24,0,.39A1.21,1.21,0,0,0,22.49,26Zm-.11-4.43a1.57,1.57,0,0,0,.23-.58.15.15,0,0,1-.08,0A1.15,1.15,0,0,0,22.38,21.53Zm.23-1s0,.12.07.12a.3.3,0,0,0,.16-.08s0-.12.08-.19l-.12-.08a.53.53,0,0,0,.08-.23.15.15,0,0,0,0-.12.14.14,0,0,0-.08,0A1,1,0,0,0,22.61,20.53Zm.31,4.2v-.08a.57.57,0,0,0-.08.27,1.39,1.39,0,0,0-.16.58A1,1,0,0,0,22.92,24.73Zm-.08-5.43c0-.08.08-.12.08-.19S22.88,19.22,22.84,19.3Zm.27-.27h0l.11-.66c.08-.42.08-.5,0-.61a6.31,6.31,0,0,0-.15.85Zm.19-1.58h0v-.12l0,0A.06.06,0,0,0,23.3,17.45Zm.15,6.09v.19a.4.4,0,0,0,0-.19ZM24,21.38a1,1,0,0,1-.11.65c0-.15,0-.23,0-.34A2.05,2.05,0,0,0,24,21.38Zm.08-2.16a0,0,0,0,0,0,0h0Zm0,1.62c0,.08,0,.15,0,.19S24.11,20.92,24.11,20.84Zm.11-.46a.25.25,0,0,1,0,.11,0,0,0,0,1,0,0s0,0,0,0S24.22,20.45,24.22,20.38Zm.16-7.44a.14.14,0,0,0,0-.11l0,0a.13.13,0,0,0,0,.11A0,0,0,0,1,24.38,12.94Zm0,1.54c-.08.08,0,.16,0,.24C24.46,14.64,24.49,14.56,24.42,14.48Zm0-1.3s0,0,0,0v0Zm.11,5.62c.08.08,0,.11,0,.11A.17.17,0,0,1,24.49,18.8Zm0-.23c0-.08,0-.16,0-.2a0,0,0,0,1,0,0C24.61,18.49,24.53,18.49,24.49,18.57Z" transform="translate(0 -0.54)"/><path d="M49.18,19.8a1.68,1.68,0,0,1-.77,0,8.12,8.12,0,0,0-2.15-.27,12.37,12.37,0,0,0-2.62.38,9.84,9.84,0,0,0-2,.7l-1.31.57c-.66.35-1.27.7-1.89,1.08a4,4,0,0,1-.81.5.58.58,0,0,0-.31.54.89.89,0,0,0,.35.39.4.4,0,0,0,.19.07c.23.35.5.66.77,1a.29.29,0,0,1,.12.19.41.41,0,0,0,.23.27.8.8,0,0,0,0,.31.85.85,0,0,1,.35.19.38.38,0,0,1,.07.35,2.13,2.13,0,0,1,.27.07c0,.08.12.12.12.2s0,.19,0,.27a.72.72,0,0,1,.23,0,10.08,10.08,0,0,1,.62,1h0a.31.31,0,0,1,.11.42.36.36,0,0,1,.31.27c.08.15.16.27.23.38a7.06,7.06,0,0,1,.54.93c.12.23.19.5.31.69a.81.81,0,0,1,.15.5.27.27,0,0,0,0,.39c.11,0,0-.2.11-.2a.56.56,0,0,1,.16.5.37.37,0,0,1,.07.16,3.29,3.29,0,0,0,.2.38.38.38,0,0,1,0,.2c0,.07,0,.15,0,.19s.12.27.08.42a.5.5,0,0,1,.19.35v.15s.08.12.08.16c0,.27.11.5.08.77a.33.33,0,0,0,.11.23,1.2,1.2,0,0,1,.12.23.34.34,0,0,0-.2.35c0,.07,0,.11,0,.19a3.18,3.18,0,0,0,0,.62,4.26,4.26,0,0,1,0,1.38.63.63,0,0,0,0,.27,3.19,3.19,0,0,1-.2,1c-.11.54-.26,1-.42,1.58,0,.12,0,.15.12.23l-.16.23h-.07a.14.14,0,0,0,0,.08c-.08.15-.08.31-.27.38s-.08.2-.12.27a1.1,1.1,0,0,1-.31.51s0,0,0,.07a5.66,5.66,0,0,1-.7.93c-.08.07-.15.23-.23.3a8.81,8.81,0,0,1-1.12,1,10.18,10.18,0,0,1-2.42,1.42,1.76,1.76,0,0,0-.35.15,1.76,1.76,0,0,1-.65.2,1.09,1.09,0,0,1-.35.07l-.5.12a.47.47,0,0,1-.23,0,8,8,0,0,1-1.27.15,8.83,8.83,0,0,1-2-.23,10.1,10.1,0,0,1-2.08-.73,9,9,0,0,1-1.58-1c-.19-.16-.34-.27-.54-.46s-.46-.5-.69-.77l-.11-.12c-.24-.39-.47-.77-.66-1.15s-.34-.85-.54-1.31a.51.51,0,0,1,0-.24,2.15,2.15,0,0,0-.11-.73c0-.11,0-.23,0-.34s-.15-.16-.08-.27h0a.75.75,0,0,0,.08-.5,4.72,4.72,0,0,0,0-.77,1.06,1.06,0,0,1,0-.5,8.17,8.17,0,0,1,.16-1,1.78,1.78,0,0,0,.07-.77,1.94,1.94,0,0,1,.08-.5l.12-.46a6.55,6.55,0,0,0,.27-.69.53.53,0,0,1,.23-.31l.07-.12h0c.11-.08.15-.11.11-.19v0h0c0-.08.12-.15.12-.23a1.92,1.92,0,0,1,.11-.46l.24-.58a2.8,2.8,0,0,1,.42-.85s0,0,0-.07a2.9,2.9,0,0,1,.54-1,2.3,2.3,0,0,0,.38-.73,2.66,2.66,0,0,1,.5-.81,1.45,1.45,0,0,0,.39-.5,2.75,2.75,0,0,1,.54-.65c.23-.23.42-.5.65-.77a3.79,3.79,0,0,1,.39-.43c.11-.15.27-.27.38-.42a1.06,1.06,0,0,1,.35-.35c.07,0,.11-.11.19-.15l.46-.42a4.84,4.84,0,0,0,.39-.31,4.53,4.53,0,0,1,.92-.77c.23-.16.43-.35.66-.5a2.1,2.1,0,0,1,.57-.47.19.19,0,0,0,.12-.07c.08,0,.08-.12.08-.19s-.12-.12-.16-.2l-.46-.57c-.58-.7-1.12-1.35-1.66-2.05-.38-.46-.73-1-1.11-1.42a15.86,15.86,0,0,1-1.2-1.66c-.42-.69-.88-1.42-1.27-2.15a14.51,14.51,0,0,1-.65-1.31c-.16-.39-.27-.81-.39-1.2a4.85,4.85,0,0,1-.19-.73,3.13,3.13,0,0,1-.12-.65,2.38,2.38,0,0,1-.07-.7,9.66,9.66,0,0,0,0-1.08,3.59,3.59,0,0,1,.07-.65,0,0,0,0,1,0,0,9,9,0,0,0,.39-1c.15-.35.38-.69.57-1A2.4,2.4,0,0,1,29,5.67c.39-.31.66-.7,1-1a6.52,6.52,0,0,1,2.16-1.15,4.23,4.23,0,0,1,.93-.31A6.4,6.4,0,0,1,34,3.16a8,8,0,0,1,3.51.58A11.3,11.3,0,0,1,39,4.55a8.86,8.86,0,0,1,.73.58c.23.19.46.38.69.61a1,1,0,0,1,.19.31.89.89,0,0,0,.31.42l.19.23a4.9,4.9,0,0,1,.62,1.39.71.71,0,0,1,0,.5.24.24,0,0,0,0,.23,1,1,0,0,0,0,.35.8.8,0,0,0,.15.5.14.14,0,0,1,0,.23h0a.25.25,0,0,1,0,.35v.08c-.07.3-.15.65-.19,1,0,.07,0,.15,0,.23a.34.34,0,0,1-.11.31l-.08.07c-.19.27-.19.27-.54.27a.24.24,0,0,0-.16-.07.39.39,0,0,0-.15-.12.76.76,0,0,1,0-.42.76.76,0,0,0,.08-.43,3.09,3.09,0,0,1,0-.5,4.86,4.86,0,0,0-.15-1.81,12.62,12.62,0,0,0-.61-1.61A6.12,6.12,0,0,0,38.71,5.4a4.49,4.49,0,0,0-1.5-.89,5.34,5.34,0,0,0-1.27-.27,5.82,5.82,0,0,0-1.66.12,8.92,8.92,0,0,0-1.73.69,4.83,4.83,0,0,0-.62.42l-.19.12a3.9,3.9,0,0,0-.85.77s0,0-.08.08-.07,0-.11,0-.08.12,0,.16,0,0,.08.07-.08,0-.12.08a.3.3,0,0,0-.08.16V6.78a.59.59,0,0,0-.23.27l.23-.11c-.07.11-.19.27-.27.38a2.3,2.3,0,0,0,.08-.27,1.22,1.22,0,0,0-.35.39,3.65,3.65,0,0,0-.53,1.65c0,.27,0,.54,0,.81,0,.12,0,.27-.08.43s.12,0,.15,0,0,.19,0,.34c0,0,.07,0,.11.08s0,0,0,.08a.66.66,0,0,0,.08.38s0,.12,0,.15v.16c.16.15.12.38.2.54a2.26,2.26,0,0,0,.15.54,4.48,4.48,0,0,1,.27.65.41.41,0,0,1,0,.31.27.27,0,0,1,0,.19c.12,0,.12,0,.16-.07l0,.15a.62.62,0,0,0,.11.27.77.77,0,0,1,.19.58H31c.11.07,0,.27.11.38s.23.27.31.43c.19.38.46.69.69,1.07A13.37,13.37,0,0,0,33,17.83c.34.47.69.93,1,1.43a7.56,7.56,0,0,1,.5.66v0l.27.34.11.16c.27.34.62.69.89,1s.35.34.65.07c.08-.07.2-.15.31-.23a1.53,1.53,0,0,0,.46-.23.85.85,0,0,0,.16-.11c.73-.35,1.42-.74,2.16-1.08a4.06,4.06,0,0,1,.61-.27l1.27-.46a9.35,9.35,0,0,1,1.81-.43A9.36,9.36,0,0,1,45,18.49a9.16,9.16,0,0,1,2.5.31,6.15,6.15,0,0,1,.81.23,4.48,4.48,0,0,1,.65.27,1.29,1.29,0,0,1,.27.23A.18.18,0,0,1,49.18,19.8ZM26,37.52s0,0,0,.07v.12c0-.08,0-.08,0-.12Zm.35-2c.11-.38.19-.77.3-1.15a20.82,20.82,0,0,1,1-2.51A17.47,17.47,0,0,1,29.31,29a16.2,16.2,0,0,1,1-1.39c.08-.12.23-.27.23-.42a1.71,1.71,0,0,0-.27.27c-.34.42-.65.84-1,1.23a17.07,17.07,0,0,0-1.66,2.77,19.55,19.55,0,0,0-1.15,2.89l-.23.92a7.56,7.56,0,0,0-.2,1.31s0,.12.08.12,0-.23,0-.35Zm-.12,3.28c0-.2,0-.43,0-.62s.12-.39,0-.62a3.79,3.79,0,0,0-.08,1.16S26.15,38.83,26.23,38.83Zm0,.65,0,0a0,0,0,0,0,0,0,.18.18,0,0,1,0,.12C26.23,39.52,26.27,39.52,26.27,39.48Zm.15-6.24a0,0,0,0,0,0,0A0,0,0,0,1,26.42,33.24Zm.7.58a18.13,18.13,0,0,1,1.61-3.54l.43-.78a.11.11,0,0,0,0-.15v.15c-.12,0-.16.16-.23.24-.35.54-.66,1.11-1,1.69a17.65,17.65,0,0,0-1.38,3.89c0,.12,0,.23-.08.42a.86.86,0,0,0,.08-.42.34.34,0,0,0,.07-.15Zm0,4.16c-.12.19-.12.19,0,.34A1.29,1.29,0,0,0,27.12,38Zm.11-.89a5.76,5.76,0,0,1,.19-1.31,16.74,16.74,0,0,1,.89-2.73,17.93,17.93,0,0,1,1.39-2.77l.38-.62a11.91,11.91,0,0,1,1.31-1.77.26.26,0,0,0,.15-.23h-.07c-.23.23-.46.5-.66.73s-.15.27-.27.35c-.3.38-.54.76-.81,1.15a22.69,22.69,0,0,0-1.15,2,18.63,18.63,0,0,0-1,2.58,10.59,10.59,0,0,0-.5,2.66s0,.12,0,.19S27.23,37.21,27.23,37.09Zm8.94-12.94c0-.08-.08-.08-.12-.11a3,3,0,0,0-.73.5,3.29,3.29,0,0,1-.66.54l-.11.11c-.19.19-.39.42-.62.62s-.65.58-1,.92c0,.08-.19.16-.27.23a3,3,0,0,0-.31.31c-.11.16-.27.31-.38.5h-.12c-.08.16-.11.31-.31.39a.26.26,0,0,0-.07.15.52.52,0,0,1-.24.27c-.11,0-.15.16-.19.27a.67.67,0,0,1-.27.39s0,0-.07,0,0,0,.07,0,0,0-.07.07,0,.23-.23.27a.24.24,0,0,0-.2.31.61.61,0,0,1-.11.35s-.08-.08-.12,0l-.08.11a1.18,1.18,0,0,1-.11.19h0l0,0s0,.08,0,.12v.08s0,.07,0,.15l-.42.81s-.08,0-.15-.08a1.34,1.34,0,0,1-.12.7.36.36,0,0,1-.15.15c.11-.27.11-.27.07-.46l-.11.23a3.75,3.75,0,0,1-.35.77.75.75,0,0,0-.15.31c-.27.88-.58,1.77-.77,2.69a7,7,0,0,0-.16,1.27c0,.27,0,.5,0,.73v.66c0,.38.08.81.12,1.19a1.57,1.57,0,0,0,0,.43s0,.11,0,.15l.11-.31s0,0,0,.08a1.38,1.38,0,0,0,.19.77.28.28,0,0,1,0,.19c0,.08,0,.16.08.2a.7.7,0,0,1,.15.26.3.3,0,0,0,.08.16c.12,0,.16.15.19.27a.28.28,0,0,0,.08.19c.23.39.46.73.69,1.08v0c.12,0,.16.11.24.23a.76.76,0,0,0,.34.35s0,.07.08.11.08.08.11.08.16.08.2.11c.23.08.34.31.57.39a6.18,6.18,0,0,1,.74.35A3.33,3.33,0,0,0,33,45.3c.23,0,.42,0,.62,0a5.8,5.8,0,0,0,1.77-.43,12.39,12.39,0,0,0,1.88-1,3.28,3.28,0,0,0,.66-.5,1.45,1.45,0,0,1,.5-.31v-.07a4.54,4.54,0,0,1,.62-.62,2.75,2.75,0,0,0,.54-.88.85.85,0,0,0,.11-.16s.08,0,.12-.11a10,10,0,0,1,.54-.85,5.38,5.38,0,0,0,.27-.66.56.56,0,0,0,.15-.46.12.12,0,0,1,0-.11,2.84,2.84,0,0,0,.19-1,1.16,1.16,0,0,1,.12-.34l.11-.39c0-.23,0-.46.08-.65a1.08,1.08,0,0,0-.08-.5l0,0c0-.08,0-.12,0-.19V35.9a1,1,0,0,0,0-.58c0-.11,0-.27-.08-.42a2.41,2.41,0,0,0,0-.54,6.13,6.13,0,0,1-.11-.73,1.29,1.29,0,0,0,0-.39,7.91,7.91,0,0,0-.19-.81,1.38,1.38,0,0,0-.23-.65l-.08-.2c-.08-.3-.19-.61-.31-1l-.35-.73a16.08,16.08,0,0,0-1.11-2.19c-.35-.54-.69-1.08-1-1.58C37.17,25.42,36.67,24.81,36.17,24.15ZM27.81,35.86l.11-.54c-.07.73-.27,1.43-.3,2.16a2.56,2.56,0,0,1,0-.73A6.93,6.93,0,0,1,27.81,35.86Zm-.16,3.23,0,0v-.07A0,0,0,0,0,27.65,39.09Zm.24,2.58a.24.24,0,0,1,.07.16C28,41.75,28,41.67,27.89,41.67Zm.3-7.16a3.48,3.48,0,0,1,.2-.69A1.15,1.15,0,0,1,28.19,34.51ZM28.5,7.67a10.33,10.33,0,0,1,1.08-1.74c0-.07.15-.15.12-.26s0,0-.08,0A5.64,5.64,0,0,0,28.69,7a3.43,3.43,0,0,0-.3.85A.33.33,0,0,0,28.5,7.67Zm.85-1.08c0-.08,0-.12,0-.19l.11-.12s-.07,0-.11.12-.12.11-.16.15A6.56,6.56,0,0,0,28.58,8V8s.08,0,.08,0A6.43,6.43,0,0,1,29.35,6.59Zm-.66,26.34a.35.35,0,0,1-.11.35Zm.16,10.29v0Zm.23-34.28a1.21,1.21,0,0,0,.35-.69A1.2,1.2,0,0,1,29.5,8a7.17,7.17,0,0,1,.58-1c.16-.24.31-.47.46-.74,0,0,.12-.07.08-.11a3.76,3.76,0,0,0-1,1.35A5.75,5.75,0,0,0,29.08,8.94Zm.31,2a0,0,0,0,0-.08,0,0,0,0,0,1,0,0A0,0,0,0,0,29.39,11Zm.11,20.1-.11.24.15-.12S29.58,31.12,29.5,31.08Zm.31-22.8a.54.54,0,0,1-.19.47,2.14,2.14,0,0,0,.15-.47Zm-.15.54s0,0,0-.07h0Zm0,0v.23A.24.24,0,0,1,29.66,8.82Zm.15-3.19a.15.15,0,0,1,.12,0,0,0,0,0,1,0,0v0A.12.12,0,0,0,29.81,5.63ZM30,7.74s0-.07,0-.11,0,.08,0,.15l-.11.12A.85.85,0,0,1,30,7.74Zm-.11,22.8a.15.15,0,0,0,.11-.07A.1.1,0,0,1,29.89,30.54Zm.11-.07v-.12s.08,0,.16-.07a.69.69,0,0,0-.16.23Zm.27-23.15c-.07.12-.07.23-.23.31A.64.64,0,0,1,30.27,7.32ZM30.16,5.2s0,0,0,0h0Zm.5,9.13a0,0,0,0,0,0,0h0ZM30.7,27s.07,0,.11-.08a.51.51,0,0,0,.31-.38.55.55,0,0,0-.31.38C30.74,27,30.7,27,30.7,27Zm.46-.54a.12.12,0,0,0,.11,0l.08-.11a.35.35,0,0,0-.08.11S31.2,26.46,31.16,26.5Zm.31-.19.11-.12,0,0v0A.19.19,0,0,1,31.47,26.31Zm.31,1,0,0S31.78,27.31,31.78,27.35ZM32,27a0,0,0,0,0,0,0l0,0s0,0,0,0A0,0,0,0,1,32,27Zm.27-.15a.66.66,0,0,0,.11-.2C32.31,26.73,32.31,26.77,32.28,26.89Zm.19-.35c0,.08,0,.08,0,.12S32.51,26.62,32.47,26.54Zm.65-.62h0v0Zm.62-.5s0,0,0,0A0,0,0,0,1,33.74,25.42Zm4-1.38h0a0,0,0,0,0,0,0Zm.66.8h0v0Zm.69,1.08a0,0,0,0,0,0,0h0Zm.58,16.56c0-.07.08-.11.08-.15S39.71,42.41,39.71,42.48Zm.42-15.09s0,0,0,0Zm1.35,11.36a14.83,14.83,0,0,1-.58,1.54,10.7,10.7,0,0,1-.57,1.12.14.14,0,0,1,0,.11h0v-.11c.11,0,.15-.12.23-.2.23-.42.46-.84.65-1.27a6,6,0,0,0,.43-1.38A.24.24,0,0,0,41.48,38.75ZM40.56,28a.49.49,0,0,0-.12-.15C40.4,28,40.48,28,40.56,28Zm.61,12.48a7.63,7.63,0,0,0,.62-1.58v-.19c-.15.31-.27.65-.39,1l-.42,1C41.1,40.71,41.13,40.6,41.17,40.52Zm0-4.31v0a0,0,0,0,0,0,0ZM41.71,41l-.27.46a3.82,3.82,0,0,0-.23.51.24.24,0,0,0,.19-.16,10.42,10.42,0,0,0,.81-1.46,8,8,0,0,0,.5-1.74,1,1,0,0,0,0-.34s0-.08-.07-.08l-.12.46A9.71,9.71,0,0,1,41.71,41Zm-.15-29.73s0,0,0,0h0Zm.08,19h.15v0A.23.23,0,0,1,41.64,30.28Zm0,7.66c.08-.08.08-.15.12-.27C41.67,37.75,41.67,37.82,41.67,37.94Zm.08-29.12s0-.07,0-.07,0,0,0-.08C41.87,8.78,41.79,8.78,41.75,8.82Zm.19.66c-.11-.12-.11-.12-.07-.54C42,9.21,42,9.25,41.94,9.48Zm-.07,21.33a.09.09,0,0,0,.07,0s0-.07,0-.07,0,0-.07,0Zm0,6.51a.13.13,0,0,0,.11-.15,4,4,0,0,0,0-1.19C41.9,36.44,41.9,36.86,41.87,37.32Zm.57-5,0,0a0,0,0,0,0,0,0v0S42.48,32.28,42.44,32.32Zm.35,7.81a1.8,1.8,0,0,1-.15.31C42.64,40.29,42.64,40.21,42.79,40.13Zm-.15.35v0Zm.15-2.89c0-.07.12-.15.08-.27s0,0,0,0,0,0,0,0A.22.22,0,0,0,42.79,37.59Zm0-3.92c0,.07,0,.19.08.26C42.87,33.82,42.87,33.74,42.75,33.67Zm0,6.43v0s0,0,0,0l0,0Zm.62-4.39c0,.19,0,.38,0,.57v.85a3.21,3.21,0,0,0-.16,1.08c0,.27-.15.54-.19.81a2,2,0,0,0-.16.54l-.07.07a8.61,8.61,0,0,0,.38-2A10.8,10.8,0,0,0,43.41,35.71Zm-.5-1.39s0,.08,0,.11h0v0S42.94,34.36,42.91,34.32Zm.5.5v.46A.39.39,0,0,1,43.41,34.82Z" transform="translate(0 -0.54)"/></g></g></svg>