<svg xmlns="http://www.w3.org/2000/svg" viewBox="0 0 48.6 45.25"><title>Risorsa 1</title><g id="Livello_2" data-name="Livello 2"><g id="Layer_1" data-name="Layer 1"><path d="M24.43,15.66c-.08.23-.11.42-.19.61a1.3,1.3,0,0,0,.15,0,1,1,0,0,0-.15.65.78.78,0,0,1,0,.3c-.07.27,0,.57-.07.84,0,.08,0,.15,0,.23-.15.07-.15.23-.15.38a2.3,2.3,0,0,1-.11.68,2.71,2.71,0,0,0-.15.53,17.8,17.8,0,0,1-.42,2L22.72,24c0,.11-.08.19-.11.3a.25.25,0,0,0,.19-.15c0-.15.11-.3.15-.45s.07-.23.19-.27a5.61,5.61,0,0,0-.34.95c-.19.57-.46,1.14-.65,1.71a2.33,2.33,0,0,1-.42.83s0,.08-.07.12v0s0,0,0,.07a.12.12,0,0,1,0-.11c-.11.08-.19.15-.11.3-.16.08-.08.19,0,.34a.27.27,0,0,0-.19,0,.23.23,0,0,0,0,.15c0,.12,0,.23-.07.35a1.26,1.26,0,0,1-.12.34,2.13,2.13,0,0,1-.3.42,1.16,1.16,0,0,0-.19.34.7.7,0,0,0-.15.26,1.48,1.48,0,0,0-.2.42.18.18,0,0,1-.15.19c-.07,0-.07.08-.07.15a.57.57,0,0,1-.23.38c-.08,0-.11.12-.15.23a2.69,2.69,0,0,1-.38.57c-.19.27-.42.57-.61.88a6.91,6.91,0,0,1-.76.91.09.09,0,0,0-.08.07,7.78,7.78,0,0,1-1.33,1.22A8.54,8.54,0,0,1,13.64,36a14.13,14.13,0,0,1-1.67.34,8.54,8.54,0,0,1-1.75,0,15.81,15.81,0,0,1-1.82-.19c-.12,0-.19,0-.31,0H7.9s-.11.11-.15.11a.89.89,0,0,1-.3,0A1.21,1.21,0,0,0,7.1,36a.56.56,0,0,1-.07.15L6.88,36a.69.69,0,0,0-.5-.42c-.53-.23-1-.46-1.52-.72a8.3,8.3,0,0,1-1.71-1.22l-.34-.34c-.23-.23-.42-.42-.61-.65a7.92,7.92,0,0,1-1-1.52c-.07-.15-.11-.34-.19-.53l-.22-.84-.12-.22a1.45,1.45,0,0,1-.19-.76c0-.42,0-.8,0-1.18,0-.11,0-.19,0-.27.19-.11.27,0,.34.12a.79.79,0,0,1,.57-.16c.08.2,0,.38.16.57.07-.15-.08-.3,0-.45a.14.14,0,0,1,0,.11c0,.19,0,.42.08.65s.11.34.15.53,0,.15,0,.23,0,.11.11.19a.28.28,0,0,1,.08.19c.07.15.07.34.15.49a7.26,7.26,0,0,0,.38,1c.08.11.11.27.19.38a.85.85,0,0,0,.23.34c-.15,0-.15-.15-.31-.11a.21.21,0,0,0,0,.15,9,9,0,0,0,.57.72c0-.19-.19-.26-.15-.49.19.26.34.45.53.68a4.52,4.52,0,0,0,.34.46l.38.34c.08.08.16.11.23.19a.87.87,0,0,0,.27.23l1.14.72c.26.15.38.08.38-.23a4,4,0,0,0-.12-.68,1.11,1.11,0,0,1-.07-.31l-.08-.64a7.2,7.2,0,0,0-.07-.8A2.06,2.06,0,0,0,6,31.2c0-.08,0-.12,0-.15,0-.35,0-.65,0-1a3.59,3.59,0,0,0-.19-1.25.91.91,0,0,1,0-.61,1,1,0,0,0,0-.35,1.93,1.93,0,0,0-.15-.72.59.59,0,0,1,0-.45.4.4,0,0,0,0-.42,1.23,1.23,0,0,1-.12-.72,2.77,2.77,0,0,1,0-.5.6.6,0,0,1-.07-.34c0-.23,0-.42.07-.61a2.34,2.34,0,0,0-.07-.87,3.82,3.82,0,0,1-.08-.95,5.6,5.6,0,0,0-.07-.84.42.42,0,0,1,0-.19h0a2,2,0,0,0,0-.49,1.78,1.78,0,0,1,0-.65,3.18,3.18,0,0,0,0-.6,3.73,3.73,0,0,1,0-.95,1,1,0,0,0,0-.35c0-.45,0-.91-.07-1.36a.72.72,0,0,1,0-.27,1.56,1.56,0,0,0,0-.61,5,5,0,0,1,0-1,7.57,7.57,0,0,0,0-1.26s0-.11,0-.19v0a.69.69,0,0,0,0-.53.45.45,0,0,1,0-.23v-1a1,1,0,0,1,0-.35.88.88,0,0,0,0-.6c0-.12,0-.23,0-.34a4,4,0,0,1,.27-.76c.15,0,.26-.12.41-.08s0,.15,0,.23a.29.29,0,0,0,.07.19l-.11.79.07-.07.12-.61c0-.07,0-.11,0-.19L6,9.81c.12,0,.16-.08.19-.08a1.74,1.74,0,0,0,.38.15v.31a1.78,1.78,0,0,0,.27-.12c.11.12,0,.27,0,.42.11-.07.08-.19.15-.26,0,.19,0,.37-.15.49s0,.23-.08.38L7,11a.9.9,0,0,1-.11.35.16.16,0,0,0,0,.22c.07,0,0,.12,0,.19a.31.31,0,0,0,0,.31.21.21,0,0,1,0,.15,1,1,0,0,1-.07.42,1.37,1.37,0,0,0,0,.57v.23A.5.5,0,0,1,7,13.8a.39.39,0,0,0,0,.3.27.27,0,0,1,0,.19c0,.42,0,.84,0,1.25A1,1,0,0,1,7,16a.72.72,0,0,0-.08.42H7.1v.15A.7.7,0,0,0,7,17a.11.11,0,0,1,0,.15,5.47,5.47,0,0,0,.08,1.14.35.35,0,0,0,0,.15c.08,0,.08-.08.08-.11l0,0a.85.85,0,0,1-.12.54,1.13,1.13,0,0,0,0,.34,1.8,1.8,0,0,0,0,.38c0,.45,0,1,0,1.4,0,.08,0,.16,0,.27.08-.15,0-.27.08-.34s.07.07.07.07a1,1,0,0,1,0,.38,1.49,1.49,0,0,0-.07.69c0,.07.07.15.11.23a.64.64,0,0,0,0,.57.88.88,0,0,1,.08-.27V23a.48.48,0,0,1-.08.3,3.45,3.45,0,0,0,0,1.07.68.68,0,0,0,0,.3v.69c0,.15.08.3.08.45s0,.34,0,.49h.11a1.77,1.77,0,0,1,0,.46l-.07-.11c0,.45-.08.83,0,1.25a.33.33,0,0,1,0,.19L7.6,30c0,.27.07.57.11.87v.27c0,.76.12,1.48.19,2.24.08.5.12,1,.15,1.52a.27.27,0,0,0,0,.19,2,2,0,0,0,.76.31,7,7,0,0,0,3.31-.16,7.43,7.43,0,0,0,2-.83,10.29,10.29,0,0,0,1.41-1.22,3.44,3.44,0,0,0,.72-.8s.08-.07.08-.11a4.25,4.25,0,0,0,.72-.95s0-.08,0-.08.23-.34.34-.49a7.22,7.22,0,0,1,.46-.72,1.88,1.88,0,0,1,.41-.57,1,1,0,0,0,.12-.19.39.39,0,0,1,.15-.27s0-.07,0-.11a10.56,10.56,0,0,1,.53-1.18,6.77,6.77,0,0,1,.53-.91s0,0,0,0a1.07,1.07,0,0,0,.23-.68,1.26,1.26,0,0,1,.23-.69.08.08,0,0,1,.07-.07.35.35,0,0,0,.12-.23,5.08,5.08,0,0,1,.15-.65.23.23,0,0,1,0-.15,3.12,3.12,0,0,0,.38-1,4.77,4.77,0,0,1,.3-1.06,5.29,5.29,0,0,0,.27-.76.31.31,0,0,0,0-.19,1.59,1.59,0,0,1,.15-.45,2.17,2.17,0,0,0,.15-.69,3.33,3.33,0,0,1,.11-.53,1.93,1.93,0,0,1,.08-.46,5.19,5.19,0,0,1,.27-1.25.42.42,0,0,0,0-.19,3.64,3.64,0,0,1,0-.57l.12-1a4.35,4.35,0,0,0,0-.72v-.91c0-.42,0-.84,0-1.22l-.12-1.37a3.15,3.15,0,0,0-.15-.79c-.11-.42-.19-.88-.31-1.29a13.53,13.53,0,0,0-1-2.59,14.88,14.88,0,0,0-1-1.59,8.24,8.24,0,0,0-1.14-1.22,7.59,7.59,0,0,0-1.78-1.33,8,8,0,0,0-2-.91c-.19,0-.34-.12-.53-.15A8.44,8.44,0,0,0,12,1.83a7.13,7.13,0,0,0-.84.07c-.34.08-.72.16-1.1.27s-.72.23-1.1.38A4.28,4.28,0,0,0,8,3a2.3,2.3,0,0,0-.49.27c-.12.08-.2.19-.35.23S7,3.58,7,3.61a.69.69,0,0,1-.23.16c-.07.07-.15.11-.18.19s-.12.11-.2.15a.74.74,0,0,0-.3.26l-.8.69a5.24,5.24,0,0,1-.41.38,4.2,4.2,0,0,1-.38.3h0c-.19.31-.53.46-.72.76h0s0,0,0,0a.19.19,0,0,1,.12-.07s-.08.07-.08.11,0,0-.08,0c-.19.19-.34.38-.53.61s-.34.46-.53.72-.11.27-.19.38l-.08.08h0s-.07.07-.07.11,0,.08-.08.15v0a.2.2,0,0,1-.08.15h.08s0,0-.08,0a.83.83,0,0,0-.15.19c-.23.41-.45.87-.64,1.29A6.5,6.5,0,0,0,.8,11.78l-.08.31a.22.22,0,0,0,0,.22c0,.08.08.16,0,.19a.7.7,0,0,1-.15.27.23.23,0,0,1-.31,0c-.07-.07-.07-.15-.11-.23S0,12.43,0,12.31s0-.18,0-.26a.83.83,0,0,1,0-.31,3.87,3.87,0,0,1,.19-1A4.64,4.64,0,0,1,.42,10,4.41,4.41,0,0,1,.91,8.82a1.17,1.17,0,0,0,.23-.46.49.49,0,0,1,.08-.22,9.92,9.92,0,0,1,.53-1c.07-.12.11-.27.19-.42a.89.89,0,0,1,.38-.46.91.91,0,0,0,.3-.38.08.08,0,0,1,.08-.07c.15-.27.34-.5.49-.8l.15-.15a2.64,2.64,0,0,0,.46-.42l.8-.91a2,2,0,0,1,.34-.27,4.73,4.73,0,0,0,.95-.76s0,0,.07-.08a.12.12,0,0,1,0,.08s0,0,0-.08a.69.69,0,0,0,.46-.22,2.15,2.15,0,0,1,.68-.46c.19-.08.38-.19.57-.27a2.24,2.24,0,0,1,.65-.34c.19,0,.3-.15.49-.19l.8-.23c.42-.07.8-.15,1.21-.19s.57,0,.88,0a8.33,8.33,0,0,1,1.48.19,10,10,0,0,1,2.81.91,10,10,0,0,1,1.56.91,9.56,9.56,0,0,1,1.6,1.18,8.45,8.45,0,0,1,1.14,1.1l.38.38a9,9,0,0,1,.94,1.22,2.59,2.59,0,0,0,.39.53c.18.26.22.61.45.83,0,.16.08.23.11.35s0,.07,0,.11l.27.38c0,.08,0,.19,0,.3s.15,0,.15.12,0,.11,0,.11a.36.36,0,0,1,.11.42v.11h.12s0,0,0,0a.55.55,0,0,0,0,.27,1.07,1.07,0,0,1,.08.38c0,.15.07.3.07.45s.08.19.19.27h0v.07l0,0a.37.37,0,0,1,.23.23,1,1,0,0,0,.11.46.3.3,0,0,1,0,.19,1.78,1.78,0,0,0,.08.45,1.21,1.21,0,0,1,.07.5,3,3,0,0,1,0,.83V14c0,.38,0,.76.08,1.14h0a.31.31,0,0,0,.12,0c0,.15,0,.26-.12.34S24.32,15.58,24.43,15.66ZM1,9.85c-.08,0-.11,0-.19,0v0Zm.11.64c-.07.11-.11.27-.19.42,0,0,0,.07,0,.07C1,10.79,1.1,10.68,1.06,10.49Zm.42-1s-.07.08,0,.12-.11.11-.15.19a3.51,3.51,0,0,0-.15.53,2,2,0,0,0,.3-.72S1.52,9.58,1.48,9.54Zm5.09-6A11.57,11.57,0,0,0,5,4.72l-.61.57c-.27.3-.57.6-.8.91A15.19,15.19,0,0,0,1.9,8.63a4.38,4.38,0,0,0-.34.76l-.08.11c.08,0,.08-.07.08-.11a1.14,1.14,0,0,0,.23-.3,6.22,6.22,0,0,1,.49-.88A10.72,10.72,0,0,1,3,7.11,10.74,10.74,0,0,1,4.25,5.67c.31-.31.65-.65,1-1a11,11,0,0,1,1.1-.95A.4.4,0,0,0,6.57,3.5ZM1.48,8.25s0-.08.08-.11h0S1.48,8.21,1.48,8.25Zm.15-.42s0,0,0,0v0a.15.15,0,0,0,.15-.11s.08,0,.08-.08,0-.11.08-.15a.1.1,0,0,1,.07,0l.12-.23c0-.07,0-.11,0-.19l.23-.15,0,0a0,0,0,0,0,0,0V7c.08-.07.12-.11.12-.19a.81.81,0,0,0,.34-.45.47.47,0,0,0,.19-.27v0a.34.34,0,0,0,.26-.3H3.27a.36.36,0,0,1,.15-.19V5.7a.55.55,0,0,0,.3-.38s.08,0,.08-.07,0,0,.08-.08a.1.1,0,0,1,.07,0s0,0,0-.07a.14.14,0,0,1-.08,0,.15.15,0,0,1,0,.07l-.08.08s0,0-.08.07-.07,0-.11.08,0-.15.11-.19c.38-.38.76-.8,1.14-1.14C4.9,4,4.94,4,5,4V4l-.08.08a.1.1,0,0,1,0,.07l-.07.08s0,0-.08.08a.15.15,0,0,1-.07,0,.14.14,0,0,1,0,.08s0,0,.07,0a.1.1,0,0,1,0-.07s.08,0,.08-.08,0,0,.07-.08a.16.16,0,0,1,.08,0A.15.15,0,0,1,5,4L5,4c0-.15.15-.19.22-.3s.12-.08.12-.15a.44.44,0,0,0,.34-.27.26.26,0,0,0,.15,0c-.11,0-.11,0-.15,0a1.68,1.68,0,0,0-.34.27L5,3.77c-.38.38-.77.72-1.14,1.1A12.9,12.9,0,0,0,2.77,6.16c-.07.11-.22.23-.22.42-.19.07-.27.26-.35.45s-.26.27-.22.46a.21.21,0,0,0-.16.23A.63.63,0,0,1,1.63,7.83Zm.16,20.86s0-.08-.12-.15A.14.14,0,0,0,1.79,28.69Zm.3.76,0,0a0,0,0,0,0,0,0,0,0,0,0,1,0,0A0,0,0,0,1,2.09,29.45ZM2.55,6.69v.15s-.08,0-.12,0Zm-.08,1.6h0s-.08.07-.08.11V8.29Zm0,0s0,0,0-.08h.11S2.51,8.25,2.51,8.29Zm0-1.6V6.58A.17.17,0,0,1,2.7,6.5.41.41,0,0,1,2.55,6.69Zm.34-.34a.32.32,0,0,1-.15.08,1.81,1.81,0,0,0,.15-.19ZM3.08,6v.15H3C3,6.05,3,6,3.08,6Zm1.1-1.1,0,0s-.07,0-.07.07,0,0,.07-.07a.14.14,0,0,1,.08,0s0,0,0-.08Zm.27-.27,0,0s-.08,0-.08.08,0,0,.08,0a.14.14,0,0,1,0-.08s.07,0,.07-.07S4.48,4.56,4.45,4.6Zm.76-.68s0,0,0-.08v0S5.21,3.88,5.21,3.92Zm.57,7.86,0,0h0Zm.11,4.79h0l0,0Zm0,.27,0,0h0ZM6,3A0,0,0,0,0,6,3V3Zm.23,21.58a0,0,0,0,0,0,0v0s0,0,0,0Zm.08,1.56V26h0v.16Zm.07,2.28c0,.19,0,.34.08.57a6.21,6.21,0,0,0-.08-1.52.37.37,0,0,0-.07.26A5.38,5.38,0,0,1,6.38,28.39ZM7,33.29l-.11-.8a.94.94,0,0,0-.16-.65.29.29,0,0,0,0-.15,2.34,2.34,0,0,1-.08-.76s0-.11-.07-.11-.08.23-.08.34l.11,1a1.44,1.44,0,0,0,.15.38.41.41,0,0,0,0,.45.76.76,0,0,1,0,.42v.15s0,0,0,0a.73.73,0,0,1,.12-.23,1.47,1.47,0,0,1,.07.34A.86.86,0,0,0,7,33.29ZM6.5,29.53s0,0,.07,0a.49.49,0,0,0,0-.19h0ZM6.65,11.9h.07v-.08s-.07,0-.07,0Zm.07,3.53v.08s0,0,0,0A0,0,0,0,0,6.72,15.43Zm.16,3a3.11,3.11,0,0,0,0-.61l0,0A.74.74,0,0,0,6.88,18.47Zm0,2.55H7v-.31h0ZM7,15.62l0,0v.11L7,15.7S7,15.66,7,15.62Zm0,3.15v.08a0,0,0,0,0,0,0v0Zm.19,15.77h0v.12h0Zm0-7.29s0,.11,0,.15h0l0,0S7.26,27.25,7.14,27.25Zm.08,2c0-.11.07-.27,0-.38A.33.33,0,0,0,7.22,29.26Zm0-9.76h0v-.27h0Zm.07,11.05c.08-.19.12-.19.08-.26l-.12-.61s0,0,0,0A1.88,1.88,0,0,0,7.33,30.55ZM7.26,21v-.23C7.33,20.83,7.26,20.9,7.26,21Zm0,7.25v0h0Zm.07-6v.12a.14.14,0,0,0,0-.08A0,0,0,0,1,7.33,22.23Zm.54,12.62a4.78,4.78,0,0,0-.08-.76,1.77,1.77,0,0,0-.08-.46L7.6,32.19a4.32,4.32,0,0,0-.08-.76c0-.08,0-.19,0-.23l-.12-.12a2.73,2.73,0,0,0,0,.57c0,.69.11,1.37.19,2,0,.42.07.83.15,1.25,0,0,0,.12.12.08ZM7.45,25.5a.61.61,0,0,1,0-.27v-.49A1.77,1.77,0,0,1,7.45,25.5Zm.22,3.34v.08h0A.16.16,0,0,0,7.67,28.84Zm.12,1.45a.29.29,0,0,0,0,.15h0ZM8,33c.07.08.07.12.07.27A1.5,1.5,0,0,0,8,33Zm.19,1.79c0-.15,0-.27,0-.38C8.21,34.5,8.21,34.5,8.17,34.77Zm10-4.07a.62.62,0,0,1-.07.23l-.12.23C18.16,31,18.2,30.93,18.12,30.7Zm.08-.07s0,0,0,0h0Zm.38-.53s0,0,0,0a.08.08,0,0,1-.08.07l0,0S18.54,30.13,18.58,30.1Zm1.48-2.82a27.76,27.76,0,0,0,1.82-4.93l.08-.19c0-.16.08-.31.08-.46s0-.11,0-.15,0,.07,0,.15a.21.21,0,0,0,0,.15.4.4,0,0,0,0,.31.28.28,0,0,0-.19.19,2.26,2.26,0,0,1-.15.41,31.11,31.11,0,0,1-1.37,3.76,8.76,8.76,0,0,1-.57,1.26c-.23.53-.49,1.06-.76,1.59a.24.24,0,0,0,.19-.15,2.91,2.91,0,0,0,.31-.61,2.18,2.18,0,0,0,.26-.53C19.79,27.82,20,27.55,20.06,27.28Zm-.34,1.14h0s-.07,0-.11.08S19.64,28.46,19.72,28.42Zm3.87-9.08c-.07.08,0,.12,0,.16a.47.47,0,0,0-.19.41.45.45,0,0,1-.07.31c0,.15,0,.26-.08.38a.3.3,0,0,0,0,.38c-.08,0-.15,0-.15.11a2.11,2.11,0,0,0-.15.53,19.62,19.62,0,0,1-.61,2.06c-.23.68-.46,1.33-.72,2-.12.34-.27.68-.42,1-.27.6-.53,1.21-.84,1.78a.69.69,0,0,1-.15.31,5.09,5.09,0,0,1-.3.56s0,.12,0,.12a1.18,1.18,0,0,0,.11-.15c.3-.57.65-1.18.95-1.79.23-.45.42-.91.61-1.37A32.7,32.7,0,0,0,22.8,23a.82.82,0,0,1,.07-.3l.34-1.29v-.16a2.08,2.08,0,0,1,.08-.26.23.23,0,0,1,.08-.27.89.89,0,0,0,.15-.53c0-.23,0-.46.07-.68Zm-3.3,7.72a.59.59,0,0,0,.15-.16c.08-.18.19-.34.27-.53.22-.53.45-1.1.64-1.67.31-.87.57-1.75.84-2.58,0-.08,0-.12,0-.15a.1.1,0,0,0,0,.07l-.45,1.48a33,33,0,0,1-1.22,3.23c0,.12-.11.19-.15.31v.15h0A.27.27,0,0,1,20.29,27.06Zm1.44-.31h-.07s0,0,0,0A0,0,0,0,0,21.73,26.75Zm.46-1.14a.4.4,0,0,0-.15.19c0,.12-.12.23,0,.38A1.17,1.17,0,0,0,22.19,25.61Zm-.11-4.37a1.58,1.58,0,0,0,.22-.57.11.11,0,0,1-.07,0A1.05,1.05,0,0,0,22.08,21.24Zm.22-1s0,.11.08.11a.28.28,0,0,0,.15-.08s0-.11.08-.19L22.49,20a.53.53,0,0,0,.08-.23.12.12,0,0,0,0-.11.11.11,0,0,0-.07,0A.94.94,0,0,0,22.3,20.26Zm.31,4.14v-.08a.54.54,0,0,0-.08.27,1.5,1.5,0,0,0-.15.57A1.08,1.08,0,0,0,22.61,24.4ZM22.53,19c0-.08.08-.11.08-.19S22.57,19,22.53,19Zm.27-.27h0l.12-.64c.07-.42.07-.5,0-.61a4.94,4.94,0,0,0-.15.84ZM23,17.22h0V17.1l0,0A.06.06,0,0,0,23,17.22Zm.15,6v.19a.31.31,0,0,0,0-.19Zm.53-2.13a1,1,0,0,1-.11.65c0-.15,0-.23,0-.34S23.63,21.21,23.67,21.09ZM23.75,19a0,0,0,0,0,0,0h0Zm0,1.6c0,.08,0,.15,0,.19S23.78,20.64,23.78,20.56Zm.12-.46a.31.31,0,0,1,0,.12,0,0,0,1,1-.08,0S23.9,20.18,23.9,20.1Zm.15-7.33a.12.12,0,0,0,0-.11l0,0a.15.15,0,0,0,0,.12A0,0,0,0,1,24.05,12.77Zm0,1.52c-.08.08,0,.15,0,.23C24.13,14.44,24.16,14.37,24.09,14.29Zm0-1.29a0,0,0,0,0,0,0v0Zm.11,5.55c.08.07,0,.11,0,.11A.14.14,0,0,1,24.16,18.55Zm0-.23c0-.08,0-.15,0-.19a0,0,0,0,1,0,0C24.28,18.24,24.2,18.24,24.16,18.32Z" transform="translate(0 -0.54)"/><path d="M48.52,19.53a1.63,1.63,0,0,1-.76,0,7.92,7.92,0,0,0-2.13-.26,12.09,12.09,0,0,0-2.58.38,9.72,9.72,0,0,0-2,.68l-1.29.57c-.65.34-1.26.68-1.87,1.06a4.93,4.93,0,0,1-.79.5.56.56,0,0,0-.31.53.9.9,0,0,0,.34.38c.08,0,.12.08.19.08.23.34.5.64.76,1,0,0,.12.12.12.19a.39.39,0,0,0,.23.27.78.78,0,0,0,0,.3,1.11,1.11,0,0,1,.34.19.39.39,0,0,1,.08.35,2.5,2.5,0,0,1,.26.07c0,.08.12.11.12.19a.82.82,0,0,1,0,.27.67.67,0,0,1,.22,0,9.06,9.06,0,0,1,.61,1h0a.32.32,0,0,1,.12.42.36.36,0,0,1,.3.27,4.23,4.23,0,0,0,.23.38,6.2,6.2,0,0,1,.53.91c.12.23.19.49.31.68a.86.86,0,0,1,.15.5.25.25,0,0,0,0,.38c.11,0,0-.19.11-.19s.15.3.15.49a.28.28,0,0,1,.08.15c.08.15.12.27.19.38a.28.28,0,0,1,0,.19c0,.08,0,.15,0,.19s.11.27.07.42c.16.15.16.15.19.34V33s.08.12.08.16c0,.26.11.49.08.76a.29.29,0,0,0,.11.22,1,1,0,0,1,.11.23.34.34,0,0,0-.19.34c0,.08,0,.12,0,.19a3.13,3.13,0,0,0,0,.61,4.2,4.2,0,0,1,0,1.37.63.63,0,0,0,0,.27,3.34,3.34,0,0,1-.19,1c-.12.53-.27,1-.42,1.56a.3.3,0,0,0,.11.23l-.15.23h-.08a.11.11,0,0,0,0,.07c-.08.15-.08.31-.27.38s-.07.19-.11.27a1,1,0,0,1-.31.49s0,0,0,.08a5.32,5.32,0,0,1-.69.91c-.07.07-.15.23-.23.3a8.48,8.48,0,0,1-1.1,1,10.15,10.15,0,0,1-2.39,1.41.93.93,0,0,0-.34.15,2,2,0,0,1-.65.19,1,1,0,0,1-.34.07l-.5.12a.43.43,0,0,1-.22,0,7.73,7.73,0,0,1-1.26.15,8.64,8.64,0,0,1-1.94-.23,10.42,10.42,0,0,1-2.05-.72,8.33,8.33,0,0,1-1.55-1c-.19-.15-.35-.27-.54-.45s-.45-.5-.68-.77l-.11-.11c-.23-.38-.46-.76-.65-1.14s-.34-.83-.53-1.29a.47.47,0,0,1,0-.23,2.41,2.41,0,0,0-.11-.72c0-.12,0-.23,0-.34s-.15-.15-.08-.27h0a.72.72,0,0,0,.08-.49,4.59,4.59,0,0,0,0-.76,1.06,1.06,0,0,1,0-.5c0-.3.08-.64.15-1a1.58,1.58,0,0,0,.08-.76,1.79,1.79,0,0,1,.08-.49l.11-.46a5.66,5.66,0,0,0,.27-.68.54.54,0,0,1,.22-.3L26,33h0c.12-.07.15-.11.12-.19v0h0c0-.07.11-.15.11-.22a1.83,1.83,0,0,1,.12-.46l.22-.57a3,3,0,0,1,.42-.84s0,0,0-.07a3,3,0,0,1,.53-1,2.06,2.06,0,0,0,.38-.72,2.61,2.61,0,0,1,.5-.8,1.62,1.62,0,0,0,.38-.49A2.7,2.7,0,0,1,29.3,27c.23-.23.41-.49.64-.76a4.81,4.81,0,0,1,.38-.42c.12-.15.27-.26.38-.41A1,1,0,0,1,31,25c.08,0,.12-.11.2-.15l.45-.42a3.15,3.15,0,0,0,.38-.3,4.77,4.77,0,0,1,.91-.76c.23-.15.42-.34.65-.49a2.06,2.06,0,0,1,.57-.46s.07,0,.11-.08.08-.11.08-.19-.12-.11-.15-.19l-.46-.57c-.57-.68-1.1-1.33-1.63-2-.38-.46-.73-1-1.11-1.41a16.75,16.75,0,0,1-1.17-1.63c-.42-.68-.88-1.41-1.26-2.13-.22-.42-.45-.83-.64-1.29s-.27-.8-.38-1.18a3.79,3.79,0,0,1-.19-.72,3.16,3.16,0,0,1-.12-.64,2.32,2.32,0,0,1-.07-.69,9.39,9.39,0,0,0,0-1.06A3.59,3.59,0,0,1,27.32,8a0,0,0,0,1,0,0,7.12,7.12,0,0,0,.38-1,11.6,11.6,0,0,1,.57-1,2.22,2.22,0,0,1,.27-.38c.38-.3.64-.68,1-1A6.54,6.54,0,0,1,31.73,3.5a4,4,0,0,1,.91-.3,6.4,6.4,0,0,1,.87-.08A7.75,7.75,0,0,1,37,3.69a11,11,0,0,1,1.52.8,9.05,9.05,0,0,1,.72.57c.23.19.46.38.69.61a1.66,1.66,0,0,1,.19.3.86.86,0,0,0,.3.42l.19.23A4.59,4.59,0,0,1,41.19,8a.71.71,0,0,1,0,.5.24.24,0,0,0,0,.23,1,1,0,0,0,0,.34.77.77,0,0,0,.15.49.14.14,0,0,1,0,.23h0a.23.23,0,0,1,0,.34v.08c-.07.3-.15.64-.19,1,0,.07,0,.15,0,.22a.33.33,0,0,1-.11.31l-.08.07c-.19.27-.19.27-.53.27a.2.2,0,0,0-.15-.08.85.85,0,0,0-.16-.11.86.86,0,0,1,0-.42.71.71,0,0,0,.08-.42,2.2,2.2,0,0,1,0-.49,4.67,4.67,0,0,0-.16-1.78,14.11,14.11,0,0,0-.6-1.6,6.57,6.57,0,0,0-1.37-1.79,4.7,4.7,0,0,0-1.48-.87,5.17,5.17,0,0,0-1.26-.27,6,6,0,0,0-1.63.12A9.67,9.67,0,0,0,32.11,5a7.4,7.4,0,0,0-.61.42l-.19.11a4,4,0,0,0-.83.76s0,0-.08.08-.08,0-.11,0-.08.11,0,.15,0,0,.07.08a.2.2,0,0,0-.11.07.32.32,0,0,0-.08.15V6.69a.48.48,0,0,0-.22.27l.22-.12c-.07.12-.19.27-.26.38A1.2,1.2,0,0,0,29.94,7c-.15.07-.23.23-.34.38A3.65,3.65,0,0,0,29.07,9c0,.27,0,.53,0,.8a3.66,3.66,0,0,0-.07.42c0,.07.11,0,.15,0s0,.19,0,.34.08,0,.11.07,0,0,0,.08a.66.66,0,0,0,.08.38s0,.11,0,.15v.15c.16.16.12.38.2.54a1.72,1.72,0,0,0,.15.53,4.78,4.78,0,0,1,.26.64.41.41,0,0,1,0,.31.36.36,0,0,1,0,.19c.11,0,.11,0,.15-.08l0,.15a.72.72,0,0,0,.12.27.75.75,0,0,1,.19.57h.15c.12.08,0,.27.12.38s.22.27.3.42c.19.38.45.68.68,1.06s.61.84.91,1.26.69.91,1,1.4c.15.19.34.42.49.65v0l.27.34.11.15c.27.35.61.69.88,1s.34.34.64.08a1.56,1.56,0,0,1,.31-.23,1.59,1.59,0,0,0,.45-.23.85.85,0,0,0,.16-.11c.72-.35,1.4-.73,2.12-1.07a4,4,0,0,1,.61-.26l1.26-.46a9.61,9.61,0,0,1,1.78-.42,9,9,0,0,1,1.71-.19,8.9,8.9,0,0,1,2.47.31,6,6,0,0,1,.8.22,5.11,5.11,0,0,1,.64.27,1.61,1.61,0,0,1,.27.23A.17.17,0,0,1,48.52,19.53ZM25.65,37s0,0,0,.08v.11c0-.07,0-.07,0-.11ZM26,35.07c.12-.38.19-.76.31-1.14a19.22,19.22,0,0,1,1-2.47,16.72,16.72,0,0,1,1.64-2.88,13.87,13.87,0,0,1,1-1.37c.08-.11.23-.27.23-.42a1.34,1.34,0,0,0-.26.27c-.35.42-.65.83-.95,1.21A17.12,17.12,0,0,0,27.32,31a19.7,19.7,0,0,0-1.14,2.85l-.23.91a8.2,8.2,0,0,0-.19,1.29s0,.12.08.12,0-.23,0-.35Zm-.11,3.23c0-.19,0-.41,0-.6s.11-.38,0-.61a3.66,3.66,0,0,0-.08,1.14S25.8,38.3,25.88,38.3Zm0,.65,0,0a0,0,0,0,0,0,0,.16.16,0,0,1,0,.11C25.88,39,25.92,39,25.92,39Zm.15-6.16a0,0,0,0,0,0,0A0,0,0,0,1,26.07,32.79Zm.68.57a17.94,17.94,0,0,1,1.6-3.49l.42-.76a.14.14,0,0,0,0-.15v.15c-.12,0-.16.15-.23.23-.34.53-.65,1.1-.95,1.67a16.74,16.74,0,0,0-1.37,3.84,3.72,3.72,0,0,0-.08.41.81.81,0,0,0,.08-.41.3.3,0,0,0,.08-.16Zm0,4.11c-.11.19-.11.19,0,.34A1,1,0,0,0,26.75,37.47Zm.12-.88a5.1,5.1,0,0,1,.19-1.29,16.64,16.64,0,0,1,.87-2.7,18.33,18.33,0,0,1,1.37-2.73l.38-.61A11.61,11.61,0,0,1,31,27.51a.25.25,0,0,0,.15-.23H31c-.22.23-.45.5-.64.73s-.15.26-.27.34c-.3.38-.53.76-.8,1.14a22,22,0,0,0-1.13,2,17.74,17.74,0,0,0-1,2.55,10.2,10.2,0,0,0-.5,2.62.21.21,0,0,0,0,.19C26.87,36.78,26.87,36.71,26.87,36.59Zm8.81-12.76c0-.08-.08-.08-.11-.12a3.26,3.26,0,0,0-.73.5,3.06,3.06,0,0,1-.64.53l-.12.11c-.19.19-.37.42-.6.61s-.65.57-.95.91c0,.08-.19.15-.27.23a2.83,2.83,0,0,0-.3.3,5,5,0,0,0-.38.5h-.12c-.07.15-.11.3-.3.38a.28.28,0,0,0-.08.15.56.56,0,0,1-.22.27c-.12,0-.16.15-.19.26a.66.66,0,0,1-.27.38s0,0-.08,0,0,0,.08,0,0,0-.08.08,0,.23-.23.27a.22.22,0,0,0-.18.3.5.5,0,0,1-.12.34s-.08-.08-.11,0l-.08.11c0,.08-.07.12-.11.19h0l0,0s0,.08,0,.12v.07s0,.08,0,.15l-.41.8a.21.21,0,0,1-.16-.07c.08.3-.07.49-.11.68a.31.31,0,0,1-.15.15c.11-.26.11-.26.07-.45l-.11.22a3.41,3.41,0,0,1-.34.76.64.64,0,0,0-.15.31c-.27.87-.57,1.75-.76,2.66a6.69,6.69,0,0,0-.16,1.25c0,.27,0,.5,0,.72v.65c0,.38.07.8.11,1.18a1.53,1.53,0,0,0,0,.42s0,.11,0,.15l.11-.31s0,0,0,.08c0,.27,0,.53.19.76a.27.27,0,0,1,0,.19c0,.07,0,.15.07.19a1.08,1.08,0,0,1,.16.26.28.28,0,0,0,.07.16c.12,0,.15.15.19.26a.26.26,0,0,0,.08.19c.23.38.45.72.68,1.07v0c.12,0,.15.12.23.23a.76.76,0,0,0,.34.35s0,.07.08.11.07.07.11.07.15.08.19.12c.23.07.34.3.57.38a5.23,5.23,0,0,1,.72.34,3.28,3.28,0,0,0,1.45.27c.22,0,.41,0,.6,0a5.6,5.6,0,0,0,1.75-.42,12.53,12.53,0,0,0,1.86-1,4,4,0,0,0,.65-.49,1.25,1.25,0,0,1,.49-.3v-.08a4.4,4.4,0,0,1,.61-.61,2.43,2.43,0,0,0,.53-.87.65.65,0,0,0,.12-.15s.07,0,.11-.12c.19-.26.31-.57.53-.83a4.48,4.48,0,0,0,.27-.65.55.55,0,0,0,.15-.45.15.15,0,0,1,0-.12,2.73,2.73,0,0,0,.19-1,1.5,1.5,0,0,1,.11-.34l.12-.38c0-.23,0-.46.07-.65a1.19,1.19,0,0,0-.07-.49l0,0c0-.07,0-.11,0-.19v-.07a1.11,1.11,0,0,0,0-.57c0-.12,0-.27-.08-.42a2.37,2.37,0,0,0,0-.53,6.13,6.13,0,0,1-.11-.73,1.26,1.26,0,0,0,0-.38,5.67,5.67,0,0,0-.19-.79,1.38,1.38,0,0,0-.23-.65l-.07-.19c-.08-.3-.19-.61-.31-.95l-.34-.72a17,17,0,0,0-1.1-2.17c-.34-.53-.69-1.06-1-1.55C36.67,25.08,36.17,24.47,35.68,23.83ZM27.44,35.38l.11-.53c-.08.72-.27,1.4-.3,2.12a2.5,2.5,0,0,1,0-.72A6.64,6.64,0,0,1,27.44,35.38Zm-.16,3.19,0,0v-.08S27.25,38.57,27.28,38.57Zm.23,2.54a.21.21,0,0,1,.08.16C27.63,41.19,27.63,41.11,27.51,41.11Zm.31-7.06a2.91,2.91,0,0,1,.19-.69A1.21,1.21,0,0,1,27.82,34.05Zm.3-26.48a10,10,0,0,1,1.06-1.71c0-.08.15-.16.12-.27,0,0,0,0-.08,0a5.45,5.45,0,0,0-.91,1.29,3,3,0,0,0-.3.84S28.12,7.64,28.12,7.57ZM29,6.5c0-.07,0-.11,0-.19l.12-.11s-.08,0-.12.11-.11.12-.15.15a7.12,7.12,0,0,0-.64,1.41v0s.07,0,.07,0A6.52,6.52,0,0,1,29,6.5Zm-.65,26a.35.35,0,0,1-.11.34Zm.15,10.14v0Zm.23-33.81A1.2,1.2,0,0,0,29,8.14a.88.88,0,0,1,.08-.27,7.1,7.1,0,0,1,.57-1c.15-.22.3-.45.45-.72,0,0,.12-.07.08-.11a4,4,0,0,0-1,1.33A5.71,5.71,0,0,0,28.69,8.82Zm.3,2s0,0,0,0a0,0,0,1,0,0,.08S29,10.87,29,10.83Zm.12,19.84-.12.22a1.53,1.53,0,0,0,.16-.11S29.18,30.7,29.11,30.67Zm.3-22.5a.52.52,0,0,1-.19.46,1.9,1.9,0,0,0,.15-.46Zm-.15.54s0,0,0-.08h0Zm0,0v.22A.22.22,0,0,1,29.26,8.71Zm.15-3.16a.15.15,0,0,1,.12,0s0,0,0,0v0A.12.12,0,0,0,29.41,5.55Zm.19,2.09s0-.07,0-.11,0,.07,0,.15l-.11.11A.65.65,0,0,1,29.6,7.64Zm-.11,22.49s.07,0,.11-.07S29.53,30.13,29.49,30.13Zm.11-.07v-.12s.08,0,.15-.07a.83.83,0,0,0-.15.23Zm.27-22.84c-.08.12-.08.23-.23.31A.58.58,0,0,1,29.87,7.22Zm-.12-2.09s0,0,0,0h0Zm.5,9a0,0,0,0,0,0,0h0Zm0,12.54s.07,0,.11-.08a.51.51,0,0,0,.3-.38.53.53,0,0,0-.3.38C30.32,26.6,30.29,26.64,30.29,26.68Zm.45-.53a.15.15,0,0,0,.12,0l.07-.12a.22.22,0,0,0-.07.12S30.78,26.11,30.74,26.15ZM31,26l.12-.11,0,0v0S31.08,25.92,31,26Zm.31,1,0,0A0,0,0,0,0,31.35,27Zm.23-.3a0,0,0,0,0,0,0l0,0s0,0,0,0A0,0,0,0,1,31.58,26.68Zm.26-.16a.44.44,0,0,0,.12-.19C31.88,26.37,31.88,26.41,31.84,26.52Zm.19-.34a.25.25,0,0,0,0,.12S32.07,26.26,32,26.18Zm.65-.61h0v0Zm.61-.49s0,0,0,0S33.29,25.12,33.29,25.08Zm4-1.37h0a0,0,0,0,0,0,0Zm.64.8h0v0Zm.69,1.06a0,0,0,0,0,0,0h0Zm.57,16.34c0-.07.07-.11.07-.15S39.18,41.84,39.18,41.91ZM39.59,27s0,0,0,0Zm1.33,11.21c-.15.53-.38,1-.57,1.52a9.5,9.5,0,0,1-.57,1.1.14.14,0,0,1,0,.11h0v-.11c.12,0,.16-.12.23-.19.23-.42.46-.84.65-1.26A5.8,5.8,0,0,0,41.08,38C41,38.08,40.92,38.15,40.92,38.23ZM40,27.66a.65.65,0,0,0-.11-.15C39.86,27.63,39.94,27.63,40,27.66ZM40.62,40a7.65,7.65,0,0,0,.61-1.56v-.19a8.55,8.55,0,0,0-.38,1l-.42,1C40.54,40.17,40.58,40.05,40.62,40Zm0-4.26v0a0,0,0,0,0,0,0Zm.53,4.71-.26.46a2.7,2.7,0,0,0-.23.49.25.25,0,0,0,.19-.15,12,12,0,0,0,.8-1.44,8.65,8.65,0,0,0,.49-1.71,1,1,0,0,0,0-.35s0-.07-.08-.07l-.11.45A9.9,9.9,0,0,1,41.15,40.43ZM41,11.1s0,0,0,0h0Zm.08,18.77h.15v0A.23.23,0,0,1,41.08,29.87Zm0,7.56c.08-.08.08-.15.12-.27A.26.26,0,0,0,41.11,37.43Zm.08-28.72s0-.08,0-.08,0,0,0-.08C41.3,8.67,41.23,8.67,41.19,8.71Zm.19.64c-.11-.11-.11-.11-.08-.53C41.46,9.09,41.46,9.12,41.38,9.35Zm-.08,21a.12.12,0,0,0,.08,0s0-.08,0-.08,0,0-.08,0Zm0,6.42c.12,0,.12-.11.12-.15a3.9,3.9,0,0,0,0-1.18C41.34,36,41.34,36.37,41.3,36.82Zm.57-4.94,0,0a0,0,0,0,0,0,0v0S41.91,31.84,41.87,31.88Zm.35,7.72a2.72,2.72,0,0,1-.16.3C42.06,39.75,42.06,39.67,42.22,39.6Zm-.16.34v0Zm.16-2.85c0-.08.11-.15.07-.27s0,0,0,0,0,0,0,0A.23.23,0,0,0,42.22,37.09Zm0-3.88a2.68,2.68,0,0,1,.07.27C42.29,33.36,42.29,33.29,42.18,33.21Zm0,6.35v0a0,0,0,0,1,0,0l0,0Zm.6-4.33c0,.19,0,.38,0,.57v.83a3.42,3.42,0,0,0-.15,1.07c0,.26-.15.53-.19.79a2.31,2.31,0,0,0-.15.53l-.08.08a7.85,7.85,0,0,0,.38-1.94A10.46,10.46,0,0,0,42.82,35.23Zm-.49-1.37s0,.07,0,.11h0v0S42.37,33.9,42.33,33.86Zm.49.49v.46A.43.43,0,0,1,42.82,34.35Z" transform="translate(0 -0.54)"/></g></g></svg>