<?xml version="1.0" encoding="utf-8"?>
<!-- Generator: Adobe Illustrator 22.0.0, SVG Export Plug-In . SVG Version: 6.00 Build 0)  -->
<svg version="1.1" id="Livello_1" xmlns="http://www.w3.org/2000/svg" xmlns:xlink="http://www.w3.org/1999/xlink" x="0px" y="0px"
	 viewBox="0 0 256 326" style="enable-background:new 0 0 256 326;" xml:space="preserve">
<style type="text/css">
	.st0{fill:#2BA977;}
	.st1{fill:#F7DF1E;}
</style>
<g>
	<path class="st0" d="M128,105.5h23.3v106.9c-12,2.3-20.7,3.2-30.3,3.2c-28.5,0-43.3-12.8-43.3-37.2c0-23.6,15.7-38.8,40.1-38.8
		c3.8,0,6.7,0.3,10.1,1.2C128,140.7,128,105.5,128,105.5z M128.8,160c-2.7-0.9-5-1.2-7.9-1.2c-11.8,0-18.6,7.2-18.6,19.8
		c0,12.3,6.5,19.1,18.5,19.1c2.6,0,4.7-0.1,8-0.6C128.8,197.1,128.8,160,128.8,160z"/>
	<path class="st0" d="M189.5,142.4v53.5c0,18.4-1.4,27.3-5.4,35c-3.8,7.3-8.8,12-19.1,17.1l-21.7-10.2c10.3-4.8,15.3-9,18.5-15.5
		c3.3-6.6,4.4-14.2,4.4-34.4v-45.6L189.5,142.4L189.5,142.4z"/>
	<path class="st0" d="M163.8,105.5h23.3v23.7h-23.3V105.5z"/>
</g>
</svg>
