<?xml version="1.0" encoding="utf-8"?>
<!-- Generator: Adobe Illustrator 22.0.0, SVG Export Plug-In . SVG Version: 6.00 Build 0)  -->
<svg version="1.1" id="Livello_1" xmlns="http://www.w3.org/2000/svg" xmlns:xlink="http://www.w3.org/1999/xlink" x="0px" y="0px"
	 viewBox="0 0 256 256" style="enable-background:new 0 0 256 256;" xml:space="preserve">
<style type="text/css">
	.st0{fill:#DE4C36;}
	.st1{fill:#F7DF1E;}
</style>
<path class="st0" d="M212.2,154.3L154.9,97c-3.3-3.3-8.7-3.3-12,0L131,108.9l15.1,15.1c3.5-1.2,7.5-0.4,10.3,2.4
	c2.8,2.8,3.6,6.9,2.4,10.4l14.6,14.6c3.5-1.2,7.6-0.4,10.4,2.4c3.9,3.9,3.9,10.3,0,14.2c-3.9,3.9-10.3,3.9-14.2,0
	c-3-3-3.7-7.3-2.2-11l-13.6-13.6l0,35.7c1,0.5,1.9,1.1,2.7,1.9c3.9,3.9,3.9,10.3,0,14.2c-3.9,3.9-10.3,3.9-14.2,0
	c-3.9-3.9-3.9-10.3,0-14.2c0.9-0.9,2.1-1.7,3.3-2.2v-36.1c-1.2-0.5-2.4-1.3-3.3-2.2c-3-3-3.7-7.3-2.2-11l-14.9-14.9l-39.3,39.3
	c-3.3,3.3-3.3,8.7,0,12l57.4,57.4c3.3,3.3,8.7,3.3,12,0l57.1-57.1C215.5,163,215.5,157.6,212.2,154.3"/>
<path class="st1" d="M456.3,109.5h137v137h-137V109.5z"/>
<path d="M492.3,224l10.5-6.3c2,3.6,3.9,6.6,8.3,6.6c4.2,0,6.9-1.7,6.9-8.1v-43.8h12.9v44c0,13.3-7.8,19.4-19.2,19.4
	C501.3,235.8,495.3,230.4,492.3,224"/>
<path d="M537.8,222.6l10.5-6.1c2.8,4.5,6.3,7.8,12.7,7.8c5.3,0,8.7-2.7,8.7-6.3c0-4.4-3.5-6-9.4-8.6l-3.2-1.4
	c-9.3-4-15.4-8.9-15.4-19.4c0-9.7,7.4-17,18.9-17c8.2,0,14.1,2.9,18.3,10.3l-10,6.4c-2.2-4-4.6-5.5-8.3-5.5c-3.8,0-6.2,2.4-6.2,5.5
	c0,3.9,2.4,5.4,7.9,7.8l3.2,1.4c10.9,4.7,17.1,9.5,17.1,20.2c0,11.6-9.1,17.9-21.3,17.9C549.3,235.8,541.6,230.1,537.8,222.6"/>
</svg>
