<?xml version="1.0" encoding="utf-8"?>
<!-- Generator: Adobe Illustrator 22.0.0, SVG Export Plug-In . SVG Version: 6.00 Build 0)  -->
<svg version="1.1" id="Livello_1" xmlns="http://www.w3.org/2000/svg" xmlns:xlink="http://www.w3.org/1999/xlink" x="0px" y="0px"
	 viewBox="0 0 256 256" style="enable-background:new 0 0 256 256;" xml:space="preserve">
<style type="text/css">
	.st0{fill:#F7DF1E;}
</style>
<path class="st0" d="M90.5,88h105v105h-105V88z"/>
<path d="M118.1,175.7l8-4.9c1.6,2.7,3,5.1,6.3,5.1c3.2,0,5.3-1.3,5.3-6.2v-33.5h9.9v33.7c0,10.2-6,14.9-14.7,14.9
	C125,184.8,120.4,180.7,118.1,175.7"/>
<path d="M153,174.7l8-4.7c2.1,3.5,4.9,6,9.7,6c4.1,0,6.7-2,6.7-4.9c0-3.4-2.7-4.6-7.2-6.6l-2.5-1.1c-7.1-3-11.8-6.8-11.8-14.9
	c0-7.4,5.6-13,14.4-13c6.3,0,10.8,2.2,14,7.9l-7.7,4.9c-1.7-3-3.5-4.2-6.3-4.2c-2.9,0-4.7,1.8-4.7,4.2c0,3,1.8,4.2,6.1,6l2.5,1.1
	c8.4,3.6,13.1,7.3,13.1,15.5c0,8.9-7,13.7-16.4,13.7C161.8,184.8,155.9,180.4,153,174.7"/>
</svg>
